<svg xmlns:dc="http://purl.org/dc/elements/1.1/" xmlns:cc="http://creativecommons.org/ns#" xmlns:rdf="http://www.w3.org/1999/02/22-rdf-syntax-ns#" xmlns:svg="http://www.w3.org/2000/svg" xmlns="http://www.w3.org/2000/svg" version="1.1" width="105.1" height="68.4"><defs/><metadata><rdf:RDF><cc:Work rdf:about=""><dc:format>image/svg+xml</dc:format><dc:type rdf:resource="http://purl.org/dc/dcmitype/StillImage"/><dc:title/></cc:Work></rdf:RDF></metadata><g transform="translate(-74.2963,-333.62848)"><path d="m 158.4 401.6 c -0.5 -0.2 -0.7 -0.9 -0.5 -1.5 0.3 -0.8 -0.2 -1.1 -1.5 -1.1 -1.1 0 -2.3 -0.5 -2.6 -1.1 -0.4 -0.7 -2.3 -1.3 -4.7 -1.5 -3.7 -0.3 -4 -0.3 -3.6 1.1 0.3 0.9 0.1 1.5 -0.5 1.6 -5.7 0.6 -8.7 1.1 -9.7 1.7 -1.7 1.1 -2.9 -4.7 -1.4 -7.1 0.8 -1.4 -1.9 -4 -3.5 -3.5 -1.5 0.5 -4.5 -2.1 -4.5 -3.9 0 -0.6 -0.3 -1.2 -0.6 -1.2 -0.3 -0 -0.6 -0.8 -0.7 -1.8 -0.1 -2.1 -3.6 -6.3 -5.6 -6.8 -0.9 -0.2 -2.1 0.5 -3.4 2.2 -1.1 1.4 -2.6 2.6 -3.2 2.6 -0.6 0 -1 0.3 -0.7 0.8 0.3 0.4 0.1 0.8 -0.4 0.8 -0.6 0 -0.5 0.6 0.3 1.9 1.7 2.6 1.6 3.2 -0.6 3.8 -1.3 0.3 -2.2 1.3 -2.7 3.2 -0.9 2.9 -2.4 4.5 -1.8 1.9 0.2 -0.9 0 -1.5 -0.5 -1.5 -0.8 0 -1.2 1 -1 2.5 0 0.3 -0.6 0.5 -1.4 0.4 -0.8 -0.1 -1.3 -0.4 -1.1 -0.7 0.4 -0.7 -2.9 -0.6 -3.9 0.2 -1.6 1.1 -4.5 0.1 -6.5 -2.2 -1.8 -2 -2.7 -2.4 -5.3 -2.4 l -3.2 0 0 -3.1 c 0 -2 -0.3 -3.1 -1 -3.1 -0.9 0 -2.7 -1.8 -6.7 -7 -0.9 -1.1 -1.6 -2.2 -1.6 -2.4 0 -0.2 1.1 -0.8 2.5 -1.4 1.4 -0.6 2.9 -1.6 3.5 -2.3 0.7 -1 1.7 -1.2 3.9 -0.9 2.4 0.3 3.3 0 5.1 -1.6 1.2 -1.1 2.6 -2 3.2 -2 0.6 0 1 -0.4 1 -0.9 0 -0.5 -0.5 -0.7 -1.1 -0.4 -0.6 0.2 -1.3 0.1 -1.6 -0.3 -0.3 -0.4 -0.8 -0.5 -1.2 -0.3 -0.8 0.5 -3 -1.4 -3 -2.5 0 -0.4 0.7 -1.1 1.6 -1.6 1.2 -0.7 1.9 -0.8 2.6 -0.1 0.8 0.6 1.7 0.6 3.6 -0.2 1.4 -0.6 3.3 -1 4.3 -0.9 1.2 0.1 1.7 -0.3 1.7 -1.3 0 -0.8 0.7 -1.7 1.5 -2.2 0.8 -0.4 1.9 -2 2.5 -3.5 0.5 -1.5 1.3 -2.7 1.6 -2.7 0.3 0 0.6 -0.7 0.6 -1.4 0 -2.5 2.1 -3.5 7.3 -3.4 4.7 0.1 5 -0 6.6 -2.4 1.6 -2.3 2 -2.5 5 -2.1 1.9 0.2 3.4 0 3.8 -0.5 0.3 -0.5 1.3 -0.9 2.2 -0.9 0.9 -0 2.6 -0.4 3.6 -1 1.3 -0.7 3 -0.8 5.4 -0.3 1.9 0.4 4.5 0.6 5.7 0.6 3.6 -0 5.1 1.2 5.1 4.2 0 2.1 0.3 2.7 1.3 2.5 1 -0.2 1.3 0.2 1.2 1.5 -0.1 1 0.2 1.7 0.8 1.8 1.2 0 6.7 5.1 6.7 6.1 0 0.4 0.8 1.1 1.7 1.6 1.7 0.9 1.7 0.9 0.3 -0.7 -1.6 -1.8 -1.2 -2.1 1.1 -0.9 2.6 1.4 1.9 4.4 -1.6 6.1 -2.9 1.5 -3.8 2.9 -2.6 4.1 0.3 0.3 1.3 0 2.2 -0.6 3.1 -2.1 11.2 -1.6 11.2 0.6 0 0.5 0.7 1.6 1.5 2.4 0.8 0.8 1.5 1.8 1.5 2.3 0 0.5 0.5 1.4 1.2 1.9 0.7 0.5 1.1 1.9 1 3 -0.1 1.1 0 2.4 0.3 2.8 0.3 0.5 0.3 1.6 0.1 2.5 -0.4 1.4 -0.7 1.5 -1.6 0.8 -0.9 -0.8 -1 -0.6 -0.6 1.1 0.6 2.5 -0.2 5.2 -1.6 5.2 -0.6 0 -1.1 0.4 -1.1 0.9 0 0.6 -0.3 0.6 -1.1 -0 -0.7 -0.6 -2.1 -0.7 -3.9 -0.4 -2.4 0.5 -2.7 0.4 -2.2 -0.8 0.4 -1 0.2 -1.2 -0.4 -0.8 -0.5 0.3 -0.8 1.1 -0.5 1.6 0.2 0.6 0.1 1.2 -0.3 1.5 -0.4 0.2 -0.5 2.2 -0.2 4.3 0.4 3.8 0.4 3.9 -2.8 6.9 -1.8 1.7 -3.3 3 -3.4 3 -0.1 -0 -0.5 -0.2 -1 -0.4 z m 15.9 -23.2 c 1.4 -0.6 1.8 -4.5 0.7 -7.1 -0.8 -1.9 -5.9 -5.1 -6.7 -4.3 -0.6 0.6 1.5 4.3 2.2 3.8 0.8 -0.5 1.8 6.2 1.1 7.3 -0.6 0.9 0.9 1 2.7 0.2 z m -30 -44 c -0.7 -0.4 -0.8 -0.8 -0.2 -0.8 0.5 -0 1.1 0.3 1.4 0.8 0.6 1 0.3 1 -1.2 0 z" class="style0"/><path d="m 364.4 415.6 c -1.2 -1.4 -2.4 -7.8 -1.4 -7.8 0.4 0 1 0.4 1.5 0.9 0.5 0.5 1.9 0.8 3.3 0.6 1.8 -0.2 2.4 0.1 2.4 0.8 0 1.2 -2 6 -2.1 5 -0 -0.4 -0.4 -0.1 -0.8 0.5 -0.4 0.7 -1 1.2 -1.3 1.2 -0.3 0 -1 -0.5 -1.6 -1.2 z m 5.1 -9.3 c 0 -0.4 0.3 -0.5 0.7 -0.3 0.4 0.2 0.7 0.6 0.7 0.7 0 0.2 -0.3 0.3 -0.7 0.3 -0.4 0 -0.7 -0.3 -0.7 -0.7 z m -5.1 -4.4 c -0.7 -0.5 -1 -1.1 -0.7 -1.3 0.9 -0.9 -0.8 -0.4 -2.1 0.6 -1.1 0.9 -1.6 0.9 -3.3 -0 -1.1 -0.6 -2 -0.8 -2 -0.6 0 0.2 -0.9 -0.3 -2.1 -1.1 -1.5 -1.1 -2.1 -2.1 -2.1 -3.5 0 -1.1 -0.3 -2.2 -0.7 -2.4 -0.4 -0.2 -0.5 -0.8 -0.2 -1.2 0.3 -0.5 -0.1 -0.6 -1 -0.4 -0.8 0.2 -1.3 0.1 -1.1 -0.2 0.2 -0.4 0.2 -1.3 -0.1 -2.2 l -0.5 -1.6 -0.6 1.6 c -0.3 0.9 -0.9 1.6 -1.3 1.6 -0.4 0 -0.5 -0.4 -0.2 -0.9 0.3 -0.5 0.6 -1.2 0.7 -1.6 0.1 -0.4 0.4 -1.5 0.6 -2.4 0.4 -1.6 0.4 -1.6 -0.6 -0.5 -0.6 0.7 -1.3 1.2 -1.8 1.2 -0.4 0 -1.1 0.6 -1.5 1.4 -0.4 0.8 -1 1.4 -1.4 1.4 -0.4 0 -0.7 -0.6 -0.7 -1.4 0 -0.8 -0.6 -2 -1.3 -2.7 -0.7 -0.7 -1.2 -1.5 -1 -1.6 0.6 -0.6 -1.7 -2 -3.4 -2.2 -0.9 -0.1 -2.1 -0.4 -2.6 -0.8 -1.4 -0.9 -6.1 -0.5 -8.4 0.7 -1.1 0.6 -2.6 1 -3.4 1 -2.2 0 -6.8 2.6 -7.1 4.1 -0.3 1.1 -1.1 1.4 -4.5 1.6 -3.4 0.2 -4.7 0.7 -6.9 2.5 -3 2.4 -5.2 2.6 -8.2 0.6 -1.5 -1 -1.7 -1.3 -0.8 -2.2 1.5 -1.5 0.5 -5.1 -3.3 -12.6 -0.4 -0.8 -1.1 -2.2 -1.6 -3.2 -0.5 -1 -1.5 -2.4 -2.3 -3.1 -1.3 -1.2 -1.3 -2.9 0 -2.1 0.4 0.2 0.4 0.7 0.2 1.2 -0.3 0.5 -0.1 0.6 0.3 0.3 1.1 -0.7 1 -1.8 -0.4 -3.4 -0.8 -0.9 -1.2 -2.7 -1.3 -5.6 -0.1 -2.4 0.1 -3.9 0.3 -3.5 0.3 0.5 1.7 -0.4 3.6 -2.3 1.7 -1.7 3.7 -3.1 4.4 -3.1 0.7 0 2.1 -0.5 3.1 -1.2 1 -0.7 2.5 -1.3 3.3 -1.4 2 -0.3 4.6 -2.1 4.6 -3.3 0 -0.5 0.4 -1.3 0.9 -1.7 0.5 -0.4 0.8 -1.5 0.6 -2.4 -0.4 -2 1.6 -4 2.3 -2.3 0.6 1.5 1.8 0.6 1.3 -1 -0.3 -1 -0.1 -1.2 1.1 -0.9 1.3 0.3 1.4 0.2 1 -1 -0.3 -1 -0 -1.7 1.1 -2.5 0.9 -0.6 1.3 -1.1 0.9 -1.1 -0.4 -0 0.6 -0.7 2.3 -1.5 2.9 -1.5 3 -1.5 4.4 -0.2 1.7 1.5 5.9 2.2 5.4 0.9 -0.3 -1 2 -5.9 3.2 -6.6 0.4 -0.3 1.6 -0.5 2.5 -0.6 1 -0.1 2 -0.2 2.3 -0.2 1.1 -0.1 0.5 -2.2 -0.6 -2.2 -0.6 0 -1 -0.2 -0.8 -0.4 0.2 -0.2 1.9 0.1 3.8 0.8 1.9 0.6 4.4 1.2 5.6 1.2 1.2 0 2.3 0.3 2.3 0.6 0 0.3 0.3 0.6 0.7 0.6 0.4 0 0.5 -0.3 0.3 -0.7 -0.2 -0.4 -0.1 -0.7 0.3 -0.7 0.4 0 0.9 0.3 1.1 0.6 0.6 1 -0.3 2.9 -1.4 2.9 -0.6 0 -1 0.7 -1 1.7 0 0.9 -0.3 1.9 -0.7 2.1 -0.4 0.2 -0.7 0.7 -0.7 1 0 0.7 8.1 6.3 9.1 6.3 0.4 0 0.7 0.3 0.7 0.6 0 0.3 0.9 1 1.9 1.5 1.7 0.8 2 0.7 3.1 -0.7 1.4 -1.7 2.4 -5.2 2.8 -9.8 0.4 -3.9 1.9 -8.4 3 -8.4 0.8 0 2.7 6.3 3.1 9.9 0 0.3 0.5 0.5 1 0.5 1.5 0 3.2 2.4 3.2 4.5 0 1 0.3 2.5 0.7 3.2 0.4 0.7 0.8 2.4 0.9 3.9 0.2 1.6 0.8 2.9 1.5 3.3 3.3 1.8 5.5 5 6.1 8.5 0.1 0.8 0.5 1.4 0.9 1.4 1.4 0 2.4 1.1 2 2.1 -0.2 0.6 0.2 1.6 1.1 2.3 0.8 0.7 1.5 1.6 1.5 2.1 0 0.4 0.3 0.8 0.7 0.8 0.4 0 0.7 0.5 0.7 1 0 0.7 0.4 0.9 1.2 0.6 1.1 -0.4 1.1 -0.3 0.3 0.7 -0.6 0.7 -0.9 2.9 -0.9 5.4 0 5.9 -3.2 14.3 -6 15.5 -0.9 0.4 -5.7 8.5 -6 10.1 -0.3 2.2 -1.2 3 -3.2 2.9 -1 -0 -3 0.4 -4.3 1 -2 0.9 -2.7 0.9 -3.6 0.2 z m -20.5 -21.6 c -0.4 -1.2 -1.7 -1.6 -1.7 -0.6 0 0.7 1.6 2.3 1.9 2 0.1 -0.1 0 -0.8 -0.2 -1.4 z m 3.9 -2.8 c -0.6 -0.6 -0.7 -0.3 -0.5 0.9 0.5 2.5 0.5 2.6 0.9 1.1 0.2 -0.7 -0 -1.6 -0.4 -2.1 z m 5.5 0.9 c 0 -0.4 -0.3 -0.7 -0.7 -0.7 -0.4 0 -0.7 0.3 -0.7 0.7 0 0.4 0.3 0.7 0.7 0.7 0.4 0 0.7 -0.3 0.7 -0.7 z m -5.4 -4.7 c 0.5 -0.8 -0.8 -3.7 -1.6 -3.7 -0.4 0 -0.7 0.6 -0.7 1.4 0 0.8 0.3 1.4 0.7 1.4 0.4 0 0.5 0.3 0.3 0.7 -0.2 0.4 -0.1 0.7 0.3 0.7 0.4 0 0.8 -0.2 1 -0.5 z m -3.7 19.1 c 0 -0.7 2.1 -1 2.5 -0.4 0.2 0.4 -0.2 0.7 -1 0.7 -0.8 0 -1.4 -0.1 -1.4 -0.3 z m -16.2 -69.2 c -0.9 -0.9 -0.5 -1.5 1.3 -1.5 1 0 1.7 0.3 1.5 0.8 -0.3 0.9 -2.1 1.4 -2.8 0.7 z" class="style0"/><path d="m 483.2 345.5 c 0.1 -0.6 0.4 -1.5 0.6 -2 0.3 -0.5 0.4 -1.8 0.3 -2.9 -0.1 -1.3 0.3 -1.8 1.1 -1.5 1.7 0.6 1.6 -1 -0.1 -2.5 -0.8 -0.7 -2.4 -0.9 -3.7 -0.5 -1.8 0.5 -3 -0 -5.1 -2.2 -3.1 -3.1 -5.8 -3.6 -7.1 -1.3 -1.1 2 -9.4 1 -9.4 -1.2 0 -1.2 -0.2 -1.1 -1.6 0.2 -1.4 1.4 -2.8 1.5 -11.6 0.9 -10.8 -0.7 -22.2 -2.5 -29.7 -4.6 -3.5 -1 -5 -2 -6 -3.9 -1.4 -2.7 -3.2 -4.9 -4 -4.9 -0.3 0 0.4 1.4 1.4 3.2 1 1.8 1.7 3.7 1.5 4.4 -0.2 0.6 -1.3 -0.6 -2.4 -2.8 -1.9 -3.7 -1.9 -4.1 -0.6 -6.2 0.8 -1.2 1.1 -2.2 0.6 -2.2 -0.5 0 -0.7 -0.9 -0.5 -2 0.2 -1.1 -0.1 -2.3 -0.6 -2.6 -0.7 -0.4 -0.5 -1.4 0.6 -3 0.9 -1.4 1.3 -2.8 0.8 -3.6 -0.4 -0.7 -1 -3.5 -1.2 -6.2 -0.4 -4.1 -0.8 -5 -2.1 -4.9 -1.1 0.1 -1.6 -0.5 -1.6 -2 0 -1.2 -0.5 -2.3 -1.1 -2.5 -0.7 -0.2 1.7 -4.1 6.2 -10.1 6.5 -8.6 7.5 -9.6 8.5 -8.2 0.7 0.8 1.9 1.6 2.8 1.7 0.9 0.1 2.9 0.3 4.6 0.4 1.7 0.2 3 0.8 3 1.5 0 0.7 0.5 1.2 1.1 1.3 0.6 0.1 1.6 0.2 2.1 0.2 2.1 0.3 6.7 4.6 6.3 5.8 -0.4 1.2 1.1 1.7 3.9 1.4 0.6 -0.1 1.5 0.8 2 2 l 1 2.1 0.2 -2.3 c 0.1 -1.3 0.1 -2.6 0.1 -3 -0.2 -1.2 1 -0.8 2.9 0.9 1.7 1.5 7.4 2.3 6.5 0.9 -0.2 -0.4 -0 -0.7 0.5 -0.7 0.5 0 1 0.6 1.2 1.4 0.2 0.9 0.6 0.6 1.4 -1 0.9 -1.9 0.8 -2.6 -0.5 -3.9 -1.8 -1.8 -2 -4.9 -0.3 -5.5 0.7 -0.2 1.4 0.7 1.7 2.4 0.3 1.6 0.9 2.8 1.4 2.8 0.4 0 0.8 0.7 0.9 1.6 0 1 0.3 1.1 0.5 0.5 0.7 -1.8 2.1 -1.4 2.1 0.6 0 1 0.4 2 0.9 2.4 0.9 0.6 1.3 -0.9 1.1 -4.9 -0.1 -1.6 0.3 -2 1.3 -1.6 0.8 0.3 1.6 0.5 1.8 0.5 0.2 0 0.4 0.7 0.4 1.7 0 0.9 0.4 2.1 1 2.6 1.1 1.1 -1.5 4.3 -2.9 3.5 -0.5 -0.3 -0.9 0 -0.9 0.7 -0.3 4.2 -0.7 5.8 -1.7 6.1 -0.6 0.2 -1.5 1.3 -2 2.3 -0.5 1.1 -1.5 3 -2.2 4.3 -1.7 3 -1.7 7.3 -0 7.9 0.7 0.3 1.6 1.3 1.9 2.3 0.4 1.2 1.4 1.8 3.5 1.8 1.6 0 3.7 0.6 4.7 1.4 1 0.7 3.1 1.4 4.8 1.4 2.5 0 3.1 0.4 3.5 2.6 0.8 3.5 5 7.3 6.1 5.5 1.1 -1.7 1 -2.7 -0.5 -5.7 -1.2 -2.3 -1.2 -2.8 0 -4.7 1.6 -2.4 0.5 -6.6 -1.9 -7.5 -0.8 -0.3 -1.4 -1.3 -1.4 -2.3 0 -1 -0.6 -3 -1.4 -4.5 -1.5 -3 -1.1 -4.7 0.9 -4 0.7 0.3 1.5 0.1 1.8 -0.4 1 -1.7 7.2 1 8.3 3.5 0.8 1.9 1.4 2.3 3.3 1.8 1.8 -0.4 2.3 -1.1 2.1 -3 l -0.2 -2.5 2.9 1.5 c 1.6 0.8 3.6 2.2 4.3 3.1 2.4 2.7 4.8 3.6 7.1 2.7 1.9 -0.7 2 -0.6 1.2 1 -1.4 2.6 -1.1 3.4 0.4 1.4 0.7 -1 1.4 -1.4 1.4 -1 0 0.4 0.6 0.3 1.4 -0.3 1.1 -0.9 1.5 -0.7 2.4 1.3 0.6 1.3 1.4 2.4 1.9 2.4 0.4 0 0.8 0.9 0.8 1.9 0 1 0.4 1.7 0.8 1.4 0.5 -0.3 1.1 0 1.3 0.6 0.4 0.9 0.7 0.9 1.3 -0.1 0.7 -1 1.4 -0.9 3.7 0.9 3.4 2.5 3.5 2.7 0.8 2.5 -1.3 -0.1 -2 0.2 -1.8 1 0.1 0.7 -0.2 1 -0.7 0.7 -0.5 -0.3 -2 0.1 -3.2 1 -1.3 0.8 -2.4 1.4 -2.4 1.2 -0 -0.2 -0.3 -2.4 -0.6 -4.9 -0.6 -5.4 -0.7 -5.7 -2.6 -4.1 -0.8 0.6 -1.2 1.4 -1 1.6 1.1 1.1 -1.7 4.1 -5.3 5.8 -4 1.9 -6.3 5.3 -7.4 11.5 -0.5 2.4 -0.3 2.3 1.2 -0.9 1.9 -4 5.3 -7.6 6.3 -6.5 0.4 0.4 0.1 1.5 -0.6 2.6 -1 1.7 -1 1.9 0.2 1.4 0.8 -0.3 1.6 0.1 1.9 0.8 0.8 2 6.6 1.3 6.3 -0.7 -0.3 -1.8 1.2 -3.1 2 -1.8 0.6 1 -3 7.4 -4.2 7.4 -0.5 0 -0.8 0.8 -0.8 1.8 0 1 -0.4 2 -0.9 2.4 -0.5 0.3 -0.9 -0.4 -0.9 -1.7 0 -1.3 0.7 -2.7 1.6 -3.2 1.4 -0.8 1.4 -0.9 0.1 -1 -0.8 -0 -2 0.6 -2.6 1.4 -1.2 1.4 -3.7 1.9 -3.7 0.7 -0 -1.7 -1.6 -3 -3 -2.5 -1 0.4 -1.5 1.6 -1.5 3.7 0 2.8 -0.4 3.3 -3.6 4.6 -2 0.8 -4.3 2.4 -5 3.6 -0.8 1.2 -2.3 2.4 -3.3 2.8 -1.1 0.3 -1.8 1.1 -1.5 1.7 0.2 0.6 -0.9 1.9 -2.6 3 -1.6 1.1 -2.9 1.5 -2.8 0.9 z m 25.4 -30 c 0 -0.5 0.6 -0.9 1.4 -0.9 0.8 0 1.2 0.4 0.9 0.9 -0.3 0.5 -1 0.9 -1.4 0.9 -0.5 0 -0.9 -0.4 -0.9 -0.9 z m -107.1 -6.4 c -0.3 -0.5 -0.1 -0.9 0.4 -0.9 0.5 0 1 0.4 1 0.9 0 0.5 -0.2 0.9 -0.4 0.9 -0.2 0 -0.7 -0.4 -1 -0.9 z m 65 -16.4 c -0.7 -0.4 -1.1 -1.6 -0.9 -2.7 l 0.3 -1.9 3.7 1.8 c 2 1 2.9 1.7 1.8 1.5 -1 -0.2 -2.3 0.2 -2.8 0.9 -0.6 0.7 -1.4 0.9 -2.1 0.4 z m 16.1 -4.4 c -3.2 -1 -4.8 -1.1 -5.5 -0.4 -1.4 1.4 -2.5 1.2 -2.5 -0.3 0 -0.7 0.8 -1.6 1.9 -1.9 1.1 -0.3 1.6 -1 1.2 -1.6 -0.4 -0.6 -0.7 -2.1 -0.7 -3.3 -0.1 -2.9 -7.1 -7 -9.7 -5.6 -0.9 0.5 -2.9 0.9 -4.5 0.9 -2.2 0 -2.7 -0.3 -2.2 -1.5 0.4 -1 0.2 -1.3 -0.5 -0.9 -0.7 0.5 -1.1 -0.3 -1.1 -2.6 0 -1.8 0.4 -3.5 0.9 -3.8 0.5 -0.3 0.9 0.4 0.9 1.7 0 1.3 0.4 2.5 0.9 2.8 0.5 0.3 0.8 -0.6 0.7 -2 -0.2 -2.3 0.2 -2.6 3 -2.8 2.3 -0.2 2.8 -0 1.9 0.6 -0.7 0.5 -1.7 0.7 -2.1 0.4 -0.4 -0.2 -0.5 0.2 -0.2 1 0.4 1.2 0.8 1.2 1.9 0.3 1.1 -0.9 1.7 -0.9 3.1 0 1 0.6 2.3 0.8 2.8 0.5 0.7 -0.4 0.8 -0.2 0.3 0.6 -0.6 0.9 -0.2 1.1 1.2 0.7 1.1 -0.3 2 -0.1 2 0.4 0 0.5 0.4 0.6 0.9 0.3 0.5 -0.3 0.9 0.1 0.9 0.8 0 1.4 2.8 3.5 4.3 3.2 0.4 -0.1 1.9 -0.1 3.2 -0 2.1 0.1 2.5 0.5 2.3 2.4 -0.2 2 -1.6 3.4 -1.6 1.6 0 -0.4 -0.8 -0.7 -1.8 -0.7 -2.8 0 -2.2 2 1 3.3 1.5 0.6 3.2 2 3.8 3 0.9 1.7 0.8 1.8 -1.5 1.2 -1.6 -0.4 -2.3 -0.3 -1.9 0.3 0.3 0.5 1.4 1 2.4 1 1 0 1.8 0.4 1.8 0.9 0 1.2 -2.3 1.1 -7.7 -0.6 z m -30.4 -7.6 c -0.6 -1 0.8 -2.1 1.7 -1.3 0.9 0.9 0.7 2.1 -0.3 2.1 -0.5 0 -1.1 -0.4 -1.4 -0.9 z m -14.3 -1.1 c 0 -0.6 -0.7 -1.6 -1.6 -2.3 -1.5 -1.1 -1.3 -1.2 1.1 -1.3 l 2.8 -0.1 -2.8 -1.3 c -1.5 -0.7 -2.2 -1.3 -1.5 -1.3 1 -0.1 1 -0.4 0.2 -1.4 -0.9 -1 -0.7 -1.6 0.9 -2.7 1.8 -1.2 2.2 -1.2 3.3 -0.1 0.7 0.7 1.7 1.1 2.1 0.8 0.4 -0.3 1 0.5 1.2 1.6 0.4 2 0.4 2 0.5 0.1 0.1 -1.1 0.7 -2.4 1.3 -2.9 0.9 -0.8 1.2 -0.2 1.3 2.7 0.1 2.1 0.8 4.4 1.7 5.5 1 1.1 1.2 1.8 0.5 1.8 -0.6 0 -0.9 0.4 -0.5 0.9 0.3 0.5 -0.3 0.9 -1.3 0.9 -1 0 -1.9 -0.5 -1.9 -1.1 0 -0.9 -0.2 -0.9 -1.1 0 -1.4 1.4 -6.3 1.4 -6.3 0.1 z m 34.9 0.1 c 0 -0.5 0.4 -0.9 0.9 -0.9 0.5 0 0.9 0.4 0.9 0.9 0 0.5 -0.4 0.9 -0.9 0.9 -0.5 0 -0.9 -0.4 -0.9 -0.9 z m -22.5 -7.3 c -0.9 -1 -1.2 -1.9 -0.7 -1.9 0.6 0 0.8 -0.6 0.5 -1.4 -0.3 -0.8 0 -1.4 0.8 -1.4 1.5 0 2.8 4.6 1.7 5.8 -0.4 0.4 -1.4 -0.1 -2.4 -1.1 z m -19.1 -1.6 c -0.4 -1.9 2.1 -6.7 3.5 -6.7 0.5 -0 1.8 0.6 2.8 1.4 1.5 1.2 1.6 1.5 0.4 2.2 -0.8 0.5 -2.4 1.7 -3.6 2.8 -2.7 2.3 -2.6 2.3 -3 0.3 z m 23.2 -1 c 0 -2 0.4 -2.9 1.4 -2.9 1.7 0 1.7 1.8 -0 4.1 -1.3 1.7 -1.4 1.6 -1.4 -1.1 z m -12.5 -5.6 c 0.3 -0.5 -0.1 -1 -0.8 -1.2 -1 -0.2 -1.1 -0.7 -0.5 -1.7 0.8 -1.2 1.1 -1.2 2.1 0.2 0.7 0.9 1.5 1.6 1.8 1.6 0.3 0 0.3 -0.7 -0 -1.6 -0.6 -1.5 -0.5 -1.5 1.1 0 0.9 0.9 1.4 1.9 1.1 2.3 -1 1 -5.3 1.3 -4.7 0.3 z m 8 -0.4 c -0.8 -1 -0.7 -1.5 0.3 -2.4 1.2 -1 1.4 -0.8 1.4 1.3 0 2.7 -0.3 2.9 -1.7 1.2 z m 3.6 0.1 c 0 -0.5 0.4 -0.6 0.9 -0.3 0.5 0.3 0.9 -0.3 0.9 -1.5 0 -1.9 0.1 -1.9 1.6 -0.6 1.2 1.1 2 1.2 3.3 0.5 2.2 -1.3 4.6 0.7 2.4 2 -1.7 1.1 -9.2 0.9 -9.2 -0.2 z m -0.5 -3.5 c -0.3 -0.5 -0.1 -0.9 0.4 -0.9 0.5 0 1 0.4 1 0.9 0 0.5 -0.2 0.9 -0.4 0.9 -0.2 0 -0.7 -0.4 -1 -0.9 z m -15.2 -1.4 c 0.6 -0.8 1.8 -1.4 2.6 -1.4 1.3 0 1.2 0.2 -0.3 1.4 -2.3 1.8 -3.8 1.7 -2.4 -0 z m 19.3 0.8 c 0 -0.5 0.5 -1.4 1.1 -2 0.9 -0.9 0.9 -1.3 -0.1 -1.9 -0.9 -0.6 -1 -0.9 -0.2 -1.4 0.8 -0.5 0.8 -1 -0.1 -2.1 -0.9 -1.1 -1 -1.5 -0 -1.8 2 -0.7 1.3 -1.6 -1.1 -1.6 -2.7 0 -2.8 0.2 -0.9 2.3 1.4 1.6 0.9 4.9 -0.7 4.4 -0.5 -0.2 -0.8 -0.6 -0.7 -1.1 0.1 -0.4 -0.3 -1.1 -0.9 -1.5 -0.6 -0.4 -0.9 -1.5 -0.5 -2.4 0.3 -0.9 0.6 -2 0.6 -2.4 0.1 -2 4.6 -5.3 7.2 -5.3 2.7 0 2.8 0.1 2.6 3.5 -0.1 1.9 -0.5 3.9 -0.8 4.4 -0.3 0.5 -0.2 2.6 0.2 4.7 0.5 2.7 0.4 3.9 -0.3 3.9 -0.6 0 -2 0.3 -3.1 0.6 -1.1 0.3 -2.1 0.2 -2.1 -0.3 z m -4.9 -2.7 c -0.3 -0.3 -0.6 -1 -0.6 -1.6 0 -0.6 0.4 -0.5 1.1 0.1 0.6 0.6 0.9 1.3 0.6 1.6 -0.3 0.3 -0.8 0.2 -1.1 -0.1 z m -3.4 -1.7 c -0.6 -0.8 -1 -1.6 -0.7 -1.9 0.3 -0.3 1 0.2 1.6 1 0.6 0.8 1 1.6 0.7 1.9 -0.3 0.3 -1 -0.2 -1.6 -1 z" class="style0"/><path d="m 595.8 413.1 c -0.8 -1.4 -1.7 -1.6 -4.6 -1.3 -5.2 0.6 -10.4 -2.2 -10.2 -5.6 0.2 -3.3 3.7 -3.8 6.6 -1.1 l 2.1 2 1.9 -1.9 c 2 -2 3.9 -2.1 7 -0.4 1.5 0.9 1.6 1.2 0.6 2.5 -0.7 0.8 -1.5 2.8 -1.8 4.5 -0.6 2.7 -0.7 2.8 -1.6 1.3 z m -21 -4.3 c -0.6 -1.5 0 -3.4 3.2 -9.1 2 -3.8 2.4 -2.1 0.5 2.2 -0.7 1.6 -1.7 4.1 -2.2 5.7 -0.7 2.1 -1 2.4 -1.5 1.3 z m -24.9 -2.6 c -0.5 -0.5 -2.8 -1 -5.1 -1.2 l -4.1 -0.3 -0.2 -6.9 c -0.1 -3.8 -0.2 -7.4 -0.2 -7.9 -0 -0.6 -0.9 -1.3 -1.9 -1.5 -1.6 -0.4 -1.8 -0.2 -1.3 1.4 0.4 1.3 0.3 1.7 -0.5 1.2 -0.6 -0.4 -0.9 -1.4 -0.7 -2.3 0.2 -0.9 -0.2 -2.4 -0.8 -3.3 -1.2 -1.7 -1.3 -1.7 -1.3 0 0 1.6 -0.2 1.6 -1.4 0.4 -1 -1 -1.2 -2.1 -0.5 -4.3 0.5 -1.6 0.6 -3.8 0.3 -4.9 -0.5 -1.7 -0.2 -1.9 1.6 -1.3 2 0.6 2.1 0.5 1.5 -2.4 -0.6 -3 -2.2 -4.8 -3.5 -4 -0.4 0.2 -0.6 -1.5 -0.5 -3.8 0.1 -3.1 0.5 -4 1.4 -3.7 1 0.4 1 0.2 0.3 -0.7 -1 -1.2 -1.5 -4.3 -1.3 -7.8 0.1 -2.1 0.1 -2.1 2 -0.2 1 1 2.7 1.8 3.7 1.8 1 0 2.1 0.6 2.4 1.4 0.9 2.3 2.4 1.5 1.9 -1 -0.3 -1.6 0.1 -2.7 1.3 -3.5 0.9 -0.7 1.4 -1.5 1.1 -1.8 -0.3 -0.3 -1.2 -0.1 -1.8 0.4 -0.9 0.8 -1.6 0.7 -2.6 -0.1 -0.9 -0.7 -1.4 -0.8 -1.4 -0.2 0 0.5 0.4 1.2 0.9 1.6 0.5 0.3 0.7 1 0.4 1.5 -0.4 0.6 -1 0.5 -1.8 -0.2 -0.7 -0.6 -1.1 -1.4 -0.8 -1.9 0.3 -0.4 -0.1 -0.6 -0.8 -0.3 -0.9 0.4 -1.5 -0.3 -2 -2.3 -0.5 -2.2 -0 -3.6 2.3 -7 2.4 -3.5 3.2 -4.1 5 -3.6 1.2 0.3 2.4 0.1 2.8 -0.5 0.3 -0.5 2.2 -1 4.2 -1 5.4 0 6.2 -0.6 10.2 -7.5 2.9 -5 4.2 -6.3 5.9 -6.3 1.2 0 3.4 -1 4.9 -2.3 3.3 -2.8 5.6 -3.1 2.9 -0.4 -1.3 1.3 -1.7 2.4 -1.2 3.5 1.2 2.8 1.5 9.5 0.5 11.5 -0.6 1.1 -1.4 3.1 -1.9 4.5 -0.9 2.5 -1 2.5 -3.5 1.1 -2.5 -1.5 -2.5 -1.5 -0.6 0.2 1.8 1.7 3.2 6.3 3.5 11.6 0.2 3.2 1.9 4.3 5.6 3.7 4.7 -0.8 5.6 1.4 3.1 7 -2 4.3 -3.5 6 -3.5 3.8 0 -0.6 -1 -0.7 -2.5 -0.3 -2.3 0.6 -2.4 0.5 -1.3 -0.9 0.7 -0.9 1 -1.8 0.7 -2.2 -1.3 -1.3 -3.8 4 -3.8 8 -0 3.9 -0.2 4.1 -2.7 4.3 -2.9 0.2 -4.6 1.2 -2.1 1.2 1.1 0 1.4 0.6 1.2 2.1 -0.3 1.6 -0.9 2.1 -3.1 2.1 -1.8 -0 -2.6 0.4 -2.3 1.2 0.2 0.6 0.9 1.2 1.4 1.2 0.5 0 0.2 0.8 -0.7 1.9 -2.1 2.3 -2.5 4.3 -1.4 7.5 0.7 2.1 0.5 2.7 -1 3.5 -1.1 0.6 -1.6 1.6 -1.4 2.3 0.3 0.7 0.1 1.3 -0.4 1.3 -0.5 0 -0.9 0.4 -0.9 1 0 0.5 0.4 0.7 1 0.4 0.5 -0.3 2 0.1 3.2 0.9 1.2 0.8 2.3 1.1 2.3 0.6 0 -0.5 -0.6 -1.1 -1.4 -1.4 -0.8 -0.3 -1.2 -1 -0.9 -1.5 0.9 -1.4 6 2.8 6 4.9 0 1.3 -0.3 1.5 -1.2 0.9 -1.2 -1 -4.4 -1.2 -4.4 -0.3 0 0.3 -0.9 0.6 -2.1 0.7 -1.1 0.1 -2.9 0.4 -3.9 0.7 -1 0.3 -2.3 0.2 -2.8 -0.3 z m 1.8 -54.5 c 0.5 -0.5 0.3 -0.8 -0.6 -0.8 -1.2 0 -1.4 -1 -1.2 -5.1 0.1 -2.8 -0.1 -5.3 -0.5 -5.5 -0.4 -0.3 -2.7 0.3 -5.1 1.2 -2.7 1.1 -3.9 2 -3.3 2.4 0.6 0.4 1.7 0.2 2.5 -0.5 1.2 -1 1.3 -0.8 0.8 1.3 -0.6 2.5 0.2 3.2 2.2 1.5 0.6 -0.5 0.9 -0.7 0.7 -0.4 -0.2 0.3 0.2 1.2 1 2 1.2 1.2 1.2 1.6 -0.1 3.7 -1.5 2.2 -1.4 2.3 0.7 1.6 1.2 -0.4 2.5 -1 3 -1.5 z m -11.5 -5.4 c 0 -0.5 -0.2 -0.9 -0.4 -0.9 -0.2 0 -0.7 0.4 -1 0.9 -0.3 0.5 -0.1 0.9 0.4 0.9 0.5 0 1 -0.4 1 -0.9 z m 18.2 -6.1 c 2.6 -0.7 2.7 -1.7 0.2 -1.9 -1 -0.1 -1.8 0.2 -1.8 0.7 0 0.4 -1.1 1 -2.5 1.2 -2.4 0.4 -2.4 0.4 -0.2 0.5 1.3 0.1 3.2 -0.1 4.4 -0.4 z m 10.5 65.8 c -1.8 -1.8 -1.3 -2.5 1.1 -1.4 1.2 0.6 2 1.4 1.8 1.8 -0.6 1 -1.6 0.9 -2.9 -0.4 z m 30.7 -1.6 c -0.5 -0.8 3.3 -3.8 4.9 -3.8 0.5 0 1.4 0.6 2 1.4 1 1.3 0.9 1.4 -1.3 0.8 -1.8 -0.5 -2.6 -0.2 -3 0.9 -0.6 1.6 -1.8 1.9 -2.6 0.7 z m -27.2 -2.4 c 0 -0.9 -1.3 -1.6 -3.7 -2 -2.7 -0.4 -3.6 -1 -3.2 -1.9 0.3 -0.8 -0.4 -1.7 -1.6 -2.2 -1.1 -0.5 -2.5 -2.3 -3.1 -3.9 -0.5 -1.6 -1.3 -3.7 -1.7 -4.6 -0.6 -1.4 -0.4 -1.6 1.6 -1.1 1.4 0.3 2.6 0.1 3 -0.5 0.4 -0.6 1.7 -1.4 3 -1.9 2.9 -1.1 5.2 0.5 4.3 3 -0.5 1.6 -0.3 1.7 1.3 0.8 1.1 -0.6 1.7 -1.6 1.4 -2.4 -0.3 -0.8 -0.1 -1.4 0.5 -1.4 1 0 1.4 1.8 1.1 4.3 -0.1 0.6 0.3 1.3 0.8 1.7 1.5 0.9 1.1 6.5 -0.7 10.1 -1.7 3.4 -3 4.2 -3 1.9 z m 22.1 -1.6 c -1.2 -1.2 -1.5 -2.2 -0.9 -2.6 0.5 -0.3 -0.7 -1.1 -2.8 -1.7 -2.1 -0.6 -4.1 -0.9 -4.5 -0.6 -1.3 0.8 -3.8 -3.7 -2.7 -4.8 0.6 -0.6 0.6 -1.6 -0.1 -2.9 -0.6 -1.1 -0.8 -2.3 -0.5 -2.8 0.3 -0.5 -0.2 -1.4 -1.1 -2.1 -2.7 -2 -2.5 -3.8 0.3 -3.3 1.9 0.4 3.1 -0.2 5.1 -2.2 1.5 -1.5 2.4 -3.1 2.1 -3.6 -0.3 -0.5 0.5 -0.9 1.8 -0.9 1.3 0 2.4 0.4 2.4 0.9 0 0.5 -0.3 0.9 -0.7 0.9 -0.4 0 -0.7 0.8 -0.7 1.9 0 2.7 3.7 2 4.1 -0.8 0.2 -1.7 0.5 -1.9 1.6 -1 1.1 0.9 1.2 0.8 0.8 -0.4 -0.3 -0.8 -1.3 -1.5 -2.1 -1.5 -1.1 -0 -0.7 -0.7 1.2 -2.3 4.4 -3.6 11.8 -2.6 9.7 1.3 -1.1 2.1 0.4 9.4 2.2 10.7 1.4 1 1.3 1.1 -0.2 1.5 -1 0.2 -2.3 0.1 -3.1 -0.3 -1.8 -1 -5.3 1.5 -5.3 3.8 0 1 0.6 1.8 1.3 1.8 0.7 0 1.8 0.8 2.3 1.8 1 1.9 0.1 3 -2.6 3.4 -0.7 0.1 -1.9 0.8 -2.7 1.6 -1.3 1.3 -1.3 1.4 0 1.4 1.1 0 1.3 0.6 1 2.3 -0.6 2.9 -3.2 3 -5.7 0.3 z m 4.2 -20.8 c -0.9 -0.9 -1.7 0.5 -0.9 1.7 0.6 0.9 0.8 0.9 1.1 0 0.2 -0.6 0.1 -1.4 -0.2 -1.7 z m -61.3 18.2 c 0 -1 0.3 -1.8 0.7 -1.8 0.4 0 0.7 0.8 0.7 1.8 0 1 -0.3 1.8 -0.7 1.8 -0.4 0 -0.7 -0.8 -0.7 -1.8 z m 35 -20.7 c 0 -0.7 0.4 -1.6 0.9 -1.9 0.5 -0.3 0.9 0.3 0.9 1.3 0 1 -0.4 1.9 -0.9 1.9 -0.5 0 -0.9 -0.6 -0.9 -1.3 z m 6.9 -43.9 c -0.7 -1.2 -0.6 -1.4 2.2 -2.2 2 -0.6 2 -0.5 0.9 1.3 -1.3 2.1 -2.2 2.4 -3.1 0.9 z" class="style0"/><g transform="matrix(0.15461193,0,0,0.15461193,176.44315,261.18901)" class="style0"><path d="m 380.1 510.8 c -1.1 -0.2 -3.8 -1.1 -6 -1.9 -3.5 -1.3 -4.5 -1.3 -6.4 -0.2 -1.3 0.7 -4.1 0.4 -4.8 0.9 -0.8 0.7 -2.8 0.2 -6.4 -1.4 -2.9 -1.3 -32.1 -15.6 -38.9 -17.2 -3.4 -0.8 -10.3 -1.4 -15.4 -1.5 -8.7 -0 -9.6 -0.2 -15.7 -3.4 -4.9 -2.5 -9.1 -6 -17 -14.1 -9.6 -9.8 -24 -21.7 -30.1 -24.7 -7 -3.5 -17.1 -9.5 -18.1 -10.7 -1.6 -2 -11.4 -2 -11.4 -0.1 0 2 -1.3 2.5 -8.9 4 -10.7 2 -13.2 1.8 -16.2 -1.6 -1.6 -1.9 -3.2 -2.8 -4.2 -2.5 -0.9 0.3 -3.5 1.2 -5.9 2.1 -6 2.2 -22.2 2.1 -28.6 -0.2 -3.4 -1.2 -5 -1.4 -5.5 -0.7 -0.4 0.6 -2.4 1.4 -4.5 1.8 -2.1 0.4 -4.4 1.1 -5 1.7 -0.7 0.6 -2.7 0.8 -4.5 0.5 -1.8 -0.3 -4.6 -0.2 -6.2 0.3 -3.7 1.1 -5.3 -1.3 -4 -6.1 0.7 -2.5 0.6 -3.5 -0.6 -4.7 -1.4 -1.4 -1.3 -1.9 1 -6.4 2.5 -4.8 2.5 -4.9 0.7 -6.9 -2 -2.2 -2.4 -5.5 -0.9 -7 0.5 -0.5 1.4 -3.7 2 -6.9 0.6 -3.6 1.6 -6.2 2.5 -6.5 2.2 -0.8 6.6 4.3 9.2 10.7 2 4.9 2.7 5.8 5.3 6.3 2.4 0.5 3.2 0.2 4.1 -1.3 0.6 -1 3.1 -2.9 5.5 -4.1 3.8 -1.9 4.8 -2.1 7.2 -1.2 2.5 0.9 3.2 0.8 6.2 -1.5 1.8 -1.4 4.5 -2.5 5.9 -2.5 2.6 0 3.3 -1.7 1.5 -3.5 -0.6 -0.6 -0.8 -2.1 -0.4 -3.6 0.6 -2.2 1.1 -2.5 3.5 -2.1 2.6 0.4 2.7 0.3 1.1 -1.1 -0.9 -0.9 -2.4 -1.8 -3.3 -2.2 -2.3 -0.9 -2.1 -3.6 0.2 -3.6 1 0 2.1 0.4 2.4 0.9 0.3 0.5 2.6 1 5.1 0.9 4 0 4.7 -0.3 6.1 -3 1.6 -2.9 1.6 -3 -0.2 -3.4 -1.1 -0.3 -1.9 -1.3 -1.9 -2.3 0 -1.2 -0.7 -1.8 -1.9 -1.8 -3.3 0 -2.5 -4.8 1.7 -9.2 2 -2.1 4.4 -4.8 5.5 -6.1 l 1.9 -2.3 -3.3 2.2 c -5.8 3.8 -9.7 5.1 -12.8 4.4 -1.6 -0.3 -4.3 -0.7 -6 -0.7 -1.7 -0.1 -3.1 -0.5 -3.1 -0.9 0 -0.5 2 -2.9 4.4 -5.5 4.2 -4.5 4.3 -4.7 2.8 -7 -1.4 -2.2 -1.4 -2.8 0.9 -9.8 1.3 -4.1 3.1 -8.2 4 -9.2 1.5 -1.6 1.4 -1.7 -0.4 -1.7 -2.2 0 -5 3.3 -5 5.9 0 1.2 -1.4 2.1 -4.9 3.1 -4.5 1.4 -5.1 1.3 -6.7 -0.1 -1 -0.9 -4.5 -7.4 -3.6 -9 1.4 -2.7 0.5 -5 -1.9 -4.3 -2.3 0.7 -2.6 0.2 -3.8 -7 -0.5 -3.3 -1.8 -7 -2.9 -8.4 -1.9 -2.4 -2.7 -5.7 -1.2 -4.7 0.4 0.2 1.4 -1.4 2.3 -3.8 l 1.5 -4.2 -2.8 -1.6 c -3.1 -1.9 -3.5 -3.5 -1.1 -5 1.1 -0.6 -0.6 -1.7 -0.3 -2.9 0.5 -1.5 0.2 -1.7 -1.6 -1.3 -1.2 0.3 -3.2 1.1 -4.6 1.8 -2.8 1.5 -6.4 1.7 -7.2 0.4 -0.3 -0.5 -14.4 -3.3 -20.1 -3.9 -7.2 -0.8 -11.9 -1.8 -15.4 -3.4 -6.1 -2.8 -7.4 -2.9 -10 -0.2 -1.7 1.7 -3 2 -7.9 1.9 l -5.8 -0.2 -1.9 4.1 c -1.2 2.7 -2.6 4.1 -3.8 4.2 -9.3 0.7 -11.2 0.6 -11.9 -0.5 -0.4 -0.7 -5.3 -2.4 -6 -3.4 -0.4 -0.6 -0.7 -2.1 -0.7 -3.3 -0 -1.3 -1.4 -4.7 -3 -7.6 -3.5 -6.3 -4.9 -10.3 -3.6 -11.1 0.5 -0.3 2.2 -0.6 3.7 -0.6 1.8 -0.1 10.1 -4.7 11.3 -5.1 1.7 -0.5 2.3 -0.3 2.7 1.3 0.6 2.3 1.4 2.7 7.2 3.5 3.3 0.5 4.5 0.3 5.5 -0.9 0.7 -0.8 2.1 -1.5 3.1 -1.5 1 0 2.5 -1.2 3.5 -2.9 1.3 -2.3 2.2 -2.9 5 -2.9 1.9 0 3.9 -0.5 4.6 -1.2 0.9 -0.9 1.7 -0.6 3.5 1.7 1.3 1.6 2.3 3.4 2.4 4.1 0 0.7 0.6 1.1 1.2 0.9 0.7 -0.3 1.2 -2.3 1.2 -5.4 0 -6.3 1.8 -8 6.7 -6.5 1.8 0.6 3.3 1.6 3.3 2.3 0 1.7 1.5 1.6 4.9 -0.4 2.1 -1.2 3.2 -1.4 4.4 -0.7 1.2 0.7 2.3 0.6 4 -0.2 1.8 -0.9 1.9 -1.2 0.7 -1.3 -2.8 -0 -1.9 -1.7 1.7 -2.9 1.8 -0.6 3.3 -1.4 3.3 -1.8 0 -0.4 1.1 -1.9 2.5 -3.4 l 2.5 -2.7 1.8 2.7 c 1 1.5 1.7 3.6 1.6 4.6 -0.5 3.8 1.1 4.6 4.4 2.1 1.9 -1.4 13.8 -3.6 15.4 -4 2.1 -0.5 4.1 0.1 7.5 1.9 3.3 1.7 5.5 2.3 7.7 2 1.8 -0.3 4.2 0.1 5.8 1 3.5 1.8 8.5 2.5 12.6 1.8 3.1 -0.6 1.9 -6.3 4 -10.4 3.5 -6.8 5 -13 3 -13 -0.4 0 -1.6 0.8 -2.6 1.7 -6.8 6.2 -11.2 9 -14.6 9.5 -5.7 0.8 -15.7 -1.5 -20.6 -4.6 -4.6 -2.9 -8.4 -3 -10.6 -0.3 -1.3 1.6 -6.2 3.5 -7 2.8 -0.3 -0.3 0.2 -1.9 1.1 -3.5 2 -3.6 0.8 -5.7 -2.2 -3.8 -2.7 1.7 -2.9 1.5 -1.8 -1.6 0.7 -1.9 2 -3.1 4 -3.8 1.7 -0.6 11.6 -10.2 12.8 -12 1.2 -1.8 2.7 -3.3 3.4 -3.3 2.4 0 23.4 -13.3 24.1 -13.3 0.7 0 5.9 -5.7 9.9 -5.3 l 4.3 0.5 -2.9 -1.4 c -1.6 -0.8 -4 -1.4 -5.5 -1.4 -2.1 -0 -2.6 -0.5 -2.6 -2.2 -0 -1.2 -0.6 -2.9 -1.3 -3.8 -1.2 -1.6 -1.3 -1.6 -1.8 0.2 -0.8 3 -3.5 2.4 -4.2 -0.9 l -0.6 -2.9 -1.6 3.1 c -0.9 1.7 -1.9 4.2 -2.2 5.6 -0.7 3 -2 3.6 -6 3 -2.1 -0.3 -4.2 -1.9 -7.4 -5.5 -5 -5.8 -4.9 -6 3.2 -8.6 5.5 -1.8 7.6 -3 7.6 -4.5 0 -0.5 -1.2 -0.1 -2.6 0.9 -4.2 2.9 -6 3.3 -6.7 1.4 -1 -2.5 -3.8 -2.3 -4.4 0.3 -0.3 1.2 -1.4 2.7 -2.4 3.2 -3 1.6 -4 -0.9 -4 -10.3 -0 -4.8 -0.4 -8.7 -0.9 -8.7 -0.5 0 -0.9 0.8 -0.9 1.7 -0 1.9 -2.2 8.5 -3.1 9.4 -0.4 0.4 -0.7 -1.9 -0.7 -5 -0 -7.1 -1.3 -5.4 -3 3.8 -1.2 6.6 0.7 7.6 -2.4 3.7 -1.1 -1.4 -2.1 -12.1 -2.6 -12.4 -0.6 -0.3 -0.7 2.7 -0.2 8.1 0.4 4.8 0.4 9.1 0.1 9.6 -0.9 1.4 -6.5 -0.8 -5.9 -2.3 0.3 -0.7 -5.1 -3.7 -5.1 -3.8 0 -0.1 4.7 -9.2 4.7 -10 -0 -0.9 -0.3 -0.8 -0.9 0.5 -0.5 1.1 -4.9 6.5 -5.7 5.2 -0.5 -0.8 -0.9 -1 -1 -0.4 -0 0.5 -1.3 1.8 -3 2.7 -2.2 1.3 -3.2 1.5 -4 0.7 -0.6 -0.6 -1.8 -1.1 -2.7 -1.1 -0.9 0 -2.3 -1 -3.1 -2.1 -1.4 -2.1 -1.5 -1.9 -1.5 3.3 -0.1 4.5 -0.4 5.7 -2.2 6.9 -2.7 1.9 -7.3 1.9 -9.7 0 -1 -0.8 -2.5 -1.4 -3.4 -1.4 -2.7 0 -17.6 6.7 -19.1 8.7 -1.1 1.4 -3 2 -7.6 2.4 -7.5 0.6 -10.3 -0.7 -11.9 -5.3 -0.7 -2.2 -2.6 -4.4 -5.8 -6.5 l -4.7 -3.2 -9.9 0.5 c -9.9 0.5 -14.4 -0.3 -14.4 -2.6 0 -1.6 6.9 -7.9 9.1 -8.3 1.2 -0.2 2 -1.2 2.2 -2.7 0.2 -1.3 1.4 -4.6 2.7 -7.4 l 2.5 -5 3 2 c 1.6 1.1 4.4 2.6 6.1 3.4 1.9 0.8 10.7 9.9 11.8 9.9 1.8 0 1.7 -0.3 -1.1 -3.4 -3 -3.5 -4.8 -7 -4.8 -9.5 0 -1.1 0.9 -1.2 4.1 -0.8 2.2 0.3 4.7 1 5.5 1.6 0.8 0.5 -0.4 -0.6 -2.6 -2.5 -6.3 -5.5 -7.9 -8.9 -7.9 -16.2 0 -5.2 0.3 -6.5 1.8 -7.3 1.8 -1 22.5 14 24.3 14.8 1.8 0.7 4.8 3.2 6.7 5.4 3.2 3.7 3.4 4.5 2.9 7.9 -0.6 3.6 -0.5 3.7 0.8 1.9 0.8 -1.1 6.5 -2.5 7.4 -3.4 1.5 -1.6 1.4 -1.7 -1.1 -2.2 -3.1 -0.6 -8.4 -6.9 -7 -8.2 0.5 -0.5 3.9 -1.3 7.5 -1.8 10.8 -1.6 12.4 -2 13.7 -4.1 1.2 -1.9 1.1 -1.9 -1 -0.4 -2.7 1.9 -15.4 2.1 -22.8 0.4 -6 -1.4 -10.4 -5.5 -15 -13.8 -2.8 -5.1 -2.7 -8.4 0.2 -11.3 3.3 -3.3 6.1 -2.9 12.5 1.9 3.1 2.3 6.4 4.3 7.4 4.3 0.9 0 3 1 4.5 2.1 1.5 1.1 3 1.9 3.3 1.6 0.3 -0.3 -1.5 -1.7 -4 -3.3 -10.8 -6.8 -20.3 -17.4 -20.3 -22.7 0 -3.3 1.9 -8.2 3.2 -8.2 2.4 0 8.4 2.6 10.4 4.6 1.2 1.1 3 2.1 3.9 2.1 0.9 0 2.6 0.5 3.8 1 1.1 0.6 0.4 -0.4 -1.7 -2.1 -9.9 -8.2 -10.3 -8.7 -9 -11.5 0.9 -2 1.9 -2.6 4.1 -2.6 2.7 -0 2.8 -0.2 1.3 -1.3 -2.1 -1.6 -2.1 -2.5 -0.2 -2.5 0.8 0 3.9 -4.8 4.7 -4.8 0.8 0 2.2 -0.6 3.2 -1.1 5.2 -2.7 15.4 6.9 16.5 7.3 2.5 0.8 5.6 5.9 5.7 9.3 0 2.4 0.2 2.5 2.4 1.5 3.2 -1.5 5.3 0.3 5.3 4.6 0 2.1 0.5 3.2 1.3 3.2 0.7 0 5.4 1.3 6.2 2.2 0.6 0.7 0.8 1.5 0.5 1.8 -0.7 0.7 0.5 4.5 1.4 4.5 0.4 0 0.8 -2.2 0.9 -5 0.3 -5.8 0.5 -6.2 2.5 -4.6 0.8 0.7 2.1 0.9 2.9 0.6 1.1 -0.4 1.9 0.4 2.9 2.8 0.8 1.9 4.8 8 5.5 9.3 1.1 2.1 1.4 2.2 2.3 0.8 0.9 -1.4 1.2 -1.3 2.1 1.1 0.6 1.5 1.7 2.9 2.5 3.2 1.6 0.6 3.6 6.8 2.7 8.4 -0.4 0.7 -0.3 0.7 0.5 0 0.7 -0.7 0.9 -3 0.5 -7 -0.5 -4.8 -1.3 -6.8 -3.9 -10.2 -2.6 -3.5 -3 -4.5 -2.1 -5.7 0.6 -0.8 0.8 -1.4 0.3 -1.4 -0.5 -0 0 -0.7 1.1 -1.5 1.9 -1.4 1.8 -1.4 -0.5 -0.9 -2 0.5 -2.6 0.1 -3.6 -1.8 -0.7 -1.6 -3 -3.3 -6.3 -4.7 -11.2 -5 -20.6 -13.1 -20.6 -17.8 -0 -2.8 7.2 -6.8 12.2 -6.9 5.4 -0 12.2 2.5 14.6 5.4 l 1.8 2.1 -0.5 -2.1 c -0.4 -1.8 -0.1 -2.2 1.7 -2.2 1.2 -0 3.1 -0.5 4.2 -0.9 1.4 -0.6 0.7 -0.7 -2.1 -0.3 -2.7 0.4 -4.1 0.2 -4.1 -0.5 0 -0.6 -1.9 -1.9 -4.3 -2.9 -3 -1.3 -4.3 -2.4 -4.3 -3.7 0 -1.6 -0.5 -1.8 -3.7 -1.4 -2.1 0.3 -4 0.1 -4.3 -0.5 -0.4 -0.7 -1.5 -0.6 -3.2 0.3 -5.1 2.5 -9 2.6 -13 0.2 -2 -1.2 -4.6 -3.3 -5.6 -4.7 -1.6 -2.2 -1.7 -2.8 -0.7 -4.1 0.7 -0.8 1.9 -1.3 2.8 -1 5.8 1.7 6.6 1.7 7.7 -0.4 0.9 -1.7 0.8 -2 -0.5 -1.8 -0.9 0.2 -2.1 -0.5 -2.7 -1.6 -0.6 -1 -1.9 -2.5 -2.8 -3.4 -1.7 -1.5 -1.7 -1.6 0.1 -3.8 1.6 -1.9 2.2 -2.2 4.1 -1.4 2.9 1.2 6.8 0.6 6.2 -0.9 -0.7 -1.9 0.5 -3.1 3.8 -3.8 2.4 -0.5 3.4 -0.2 5.2 1.6 3.6 3.7 8.4 6.6 9.9 6 0.8 -0.3 1.9 -1.8 2.4 -3.4 1.3 -3.6 3 -3.6 6.2 -0 1.4 1.6 3 2.9 3.6 2.8 0.6 -0 0.4 -0.4 -0.4 -0.9 -1.3 -0.8 -1.2 -1.1 0.2 -2.5 1.6 -1.6 1.7 -1.5 3.6 0.1 1.1 1 2.4 3.5 3 5.6 1.1 4.1 5.2 9.2 7.4 9.2 0.9 0 1.1 0.7 0.7 2.5 -0.6 2.2 -0.5 2.4 0.8 1.3 1.2 -1 1.6 -1 2.1 0.4 0.3 0.9 0.2 2.5 -0.4 3.7 -1.2 2.6 -1.4 6.6 -0.2 5.9 0.5 -0.3 1.1 -0.1 1.4 0.5 0.4 0.6 1.1 0.4 2 -0.5 1.9 -1.9 4.5 -1.9 3.8 0.1 -0.9 2.3 0.2 3.3 2.6 2.4 2.5 -1 5.4 0.3 5.4 2.4 0 0.8 0.5 1.4 1.1 1.4 0.6 0 0.8 0.8 0.6 1.8 -0.6 2.2 1.7 5.8 3.6 5.8 0.8 0 5.7 2.8 6.9 3.8 1.8 1.5 2 2.2 1.3 4.1 -1.3 3.4 -1.2 14.6 0.1 13.3 0.6 -0.6 1.6 -0.8 2.3 -0.5 0.8 0.3 1.3 -0.1 1.3 -1 0 -1.7 2.9 -2.8 5.1 -2 0.9 0.3 2.3 1.9 3.1 3.5 1.4 2.7 1.4 3 -0.1 4.1 -2 1.5 -0.3 2.7 2.1 1.5 1.3 -0.7 2.8 -0.3 6.1 1.8 2.4 1.5 4.7 3.2 5.1 3.9 0.9 1.5 -1.3 2.8 -4.7 2.8 -2.7 0 -2.7 0.1 -1 1.4 1 0.7 1.5 1.7 1.1 2.1 -0.4 0.4 0.7 1.2 2.4 1.7 4 1.3 5.8 6.2 3.2 9.1 -1 1.1 -1.4 2.6 -1.1 3.7 0.7 2.2 -2.4 9.8 -5.2 12.6 l -2 2 1.9 1.6 c 1.9 1.6 1.9 1.6 -1 5.9 -3.7 5.5 -4.3 5.8 -10 4.9 -3.6 -0.5 -4.9 -1.2 -5.8 -2.9 l -1.1 -2.2 -1.1 2 c -2.5 4.7 3.4 9.6 11.5 9.7 1.4 0 3.1 0.7 3.8 1.5 1.1 1.3 0.9 2.1 -1 5.5 l -2.2 4 2.8 -2.6 c 3 -2.8 5 -3.3 6.8 -1.5 1.5 1.5 0.4 11.9 -1.5 14.9 -1.2 1.9 -1.2 2.1 0.1 2.1 0.8 0 1.5 0.6 1.5 1.2 0 0.7 1.1 2.2 2.4 3.3 2.2 1.9 2.7 8.4 3.1 9.1 1.4 1.7 2.1 12.2 1 14.2 -1.1 2 0.6 8.8 2 7.9 1.2 -0.8 2.2 -9 2 -17.9 -0.2 -8.8 0.4 -12.2 2.1 -12.2 1.4 0 3.5 3 3.6 5.2 0.1 1.1 1.1 4 2.4 6.7 l 2.3 4.8 -0.6 -4.3 c -0.3 -2.4 -1.2 -5.9 -1.9 -8 -1.8 -5 -1.6 -8.2 0.5 -14.7 1 -3 2.1 -6.6 2.4 -8.1 0.3 -1.4 3.9 -6.1 8 -10.2 l 7.4 -7.6 3.1 1.2 3.1 1.2 -0.6 5.9 c -0.6 5.8 -0.5 6 1.9 6.6 1.4 0.3 4.1 0.1 6.1 -0.5 2 -0.6 4.3 -1.1 5.2 -1.1 2.7 0 4.2 -2.3 6.2 -9.7 2.3 -8.3 2.5 -14.8 0.5 -18.6 -0.8 -1.5 -6.5 -24.2 -7.7 -34.6 -0.1 -0.6 0.6 -3.2 0.7 -6 0.1 -5 0.1 -5.1 3.8 -6.2 2 -0.6 4.8 -1.2 6 -1.2 1.3 0 3 -0.6 3.8 -1.4 1.7 -1.7 4.9 -1.9 6.3 -0.2 4.2 5 14 27.7 14.8 28.4 0.8 0.7 1.4 1.9 1.4 2.8 0 1 1.8 2.5 4.3 3.7 3.6 1.8 4.7 3 6.7 7.4 1.3 2.9 2.3 6.9 2.3 8.8 0 2 0.6 4.4 1.4 5.5 1.4 1.8 1.4 1.8 2 -0.3 0.8 -2.7 3.8 -2.8 5.4 -0.2 1.5 2.4 3.5 2.5 4.2 0.2 0.3 -0.9 1.2 -2.4 1.9 -3.2 1 -1.2 1.1 -2.1 0.4 -3.5 -0.6 -1.2 -0.7 -2.9 -0.2 -4.7 0.7 -2.3 -5.8 -15.9 -6.8 -17.1 -1.5 -1.7 -1.7 -2.4 -0.8 -4 0.6 -1.1 1.9 -2 3 -2 1.7 0 1.9 -0.6 1.6 -5 -0.2 -3.9 0.2 -5.7 1.8 -7.8 1.8 -2.4 2.7 -2.8 7.1 -2.9 2.8 -0.1 6.1 0.2 7.3 0.6 1.5 0.5 3 -2.1 4 -2.7 1.2 -0.7 2.1 -2.7 2.5 -5.5 0.5 -3.1 1.4 -5 3.5 -6.7 4.7 -4 10.3 -2.4 8.9 2.6 -0.6 2.2 -0.6 2.2 0.8 -0.1 0.7 -1.3 1.1 -3 0.9 -3.9 -0.6 -2.2 1 -3 4 -2.3 1.7 0.4 2.6 1.4 3 3.4 0.3 1.5 0.9 2.5 1.4 2.2 0.5 -0.3 2.5 0.9 4.7 2.6 4 3.2 4.8 6 2.6 8.5 -1 1.1 -0.9 1.1 0.5 0 1.5 -1.1 2 -1 3.8 0.8 1.8 1.8 2.1 3.1 2.1 9.7 v 7.6 l 6.2 2.3 c 6.3 2.3 10.5 6.4 10.5 10.3 0 0.9 4.4 12.5 5.1 13.6 0.7 1.1 1.6 4.5 2 7.5 1.1 9.1 2 7 2.3 -5.5 0.3 -12.8 0.4 -12.6 -6 -17 -2 -1.4 -2.4 -2.3 -1.9 -4.4 0.4 -1.8 0.1 -3 -0.9 -3.9 -2.3 -1.9 -3.8 -6.2 -5.7 -16.3 -1.6 -8.3 -1.6 -9.6 -0.3 -13.3 1.6 -4.9 1.6 -4.9 15.9 -2.3 9.4 1.7 12.9 2.9 12 4.3 -0.3 0.5 1.3 2.1 3.6 3.7 5 3.5 9.3 8.9 10.1 12.9 0.8 3.8 4 5.1 10.2 3.9 l 4.5 -0.9 1.9 -7.8 c 1.5 -6.2 2.3 -8 4.1 -8.8 2.2 -1 3 -4.3 1.3 -5.3 -1.6 -1 -1.1 -3 1.6 -6.2 1.6 -1.9 3.1 -2.8 4.2 -2.6 1 0.3 1.8 -0.2 2.1 -1.1 0.3 -1.2 1.5 -1.6 4.6 -1.5 5.2 0.1 6.5 0.9 6.5 3.7 0 1.2 0.9 3 1.9 3.9 1.1 0.9 1.9 2.5 1.9 3.5 0 1 0.7 1.8 1.4 1.8 2.1 0 20.4 -12.3 21.1 -12 3.2 1.2 7.4 -10.4 5.2 -14.4 -1.6 -2.9 -4.8 -14.7 -4.8 -17.5 0 -1.4 -1.1 -3.9 -2.4 -5.4 -2.2 -2.6 -2.3 -3 -1.2 -7 l 1.2 -4.2 6.1 -0.2 c 4.6 -0.2 6.6 0.2 8 1.4 1.2 1.1 2 1.3 2.2 0.5 0.2 -0.6 1.2 -2.1 2.2 -3.2 1 -1.2 1.9 -2.5 1.9 -2.9 0 -0.9 5.4 -0.5 7.9 0.6 1.3 0.5 1.9 0.2 2.3 -1.4 0.6 -2.1 2.9 -2.2 2.4 -0.2 -0.1 0.6 6.4 5.8 7.6 6.1 1.7 0.5 1.9 0.8 0.9 2 -0.8 1 -1 2.7 -0.5 5.4 0.6 3.3 1 3.9 2.5 3.4 1.1 -0.3 8.6 3.5 10.3 5.2 3.5 3.5 3.8 6.9 1 12.5 -2.2 4.6 -2.4 5.6 -0.7 5.3 0.7 -0.1 1.2 0.8 1.2 2.6 0 2.5 0.3 2.9 2.5 2.9 1.4 0 7.5 2.1 8.3 2.8 4.9 4.6 7.2 6.2 8.9 6.2 1.5 0 1.8 -0.5 1.4 -2.1 -1.7 -7.2 -1.8 -9.4 -0.3 -11.1 1.1 -1.2 2.5 -1.6 4.4 -1.3 4 0.6 8.5 -1.5 9.2 -4.2 0.3 -1.3 6.7 -10.8 10.3 -13.5 2.9 -2.2 5.6 -4 6 -4 0.4 0 1.5 0.9 2.4 1.9 1.9 2.2 4.5 2.3 9.8 0.4 2.1 -0.8 4.8 -1.4 6.1 -1.4 l 2.3 -0 -2.1 2.3 c -2 2.1 -4.7 3.5 -12.3 6.3 -1.9 0.7 -3.1 1.8 -3.1 2.9 0 1 -1.8 2.7 -4.3 4.2 -2.4 1.4 -4.3 2.7 -4.3 3 0 0.3 0.9 1.7 1.9 3.1 4.1 5.5 -1.2 16.6 -9.2 19.2 -2.3 0.8 -3.3 1.7 -3.3 3 0 1.5 0.4 1.8 1.7 1.2 5 -2.1 5.2 -2 4.7 2.7 -0.3 3.3 -0.1 4.2 0.8 3.9 0.7 -0.3 9.7 1.8 10.5 2.8 1 1.4 1.4 1.3 3.7 -0.9 1.4 -1.4 2.5 -2.8 2.5 -3.2 0 -0.4 1.1 -1.2 2.5 -1.8 3.6 -1.6 5.3 0.3 8.5 9.7 2.4 7.1 2.5 8.2 1.5 12.1 -1.2 4.7 -4.8 10.6 -8.9 14.5 -2.9 2.8 -1.9 9.8 -0.6 6.2 l -3.1 8 c 0 0 15.3 -3.6 24.6 -8.8 2.8 -1.5 5.4 -2.8 5.9 -2.8 1.8 0 2 3.3 0.5 7.8 -1.5 4.6 -1.5 4.7 0.6 7 1.2 1.3 5.4 4.4 9.4 7.1 7.5 4.9 10.2 5.6 15.9 4 3.8 -1.1 9.3 1.3 8.7 3.7 -0.2 0.9 0.4 2.1 1.4 2.7 1 0.6 1.8 1.8 1.8 2.5 0 1.8 1.3 1.8 2.9 -0 0.7 -0.8 1.6 -1.4 2 -1.4 1.6 0 6.5 6.2 6.5 8.3 0 1.1 0.5 2.4 1 2.7 0.6 0.3 0.7 1.3 0.4 2.2 -0.4 0.9 -0.8 4 -0.9 7 -0.4 8 -2.5 11.3 -7.1 11.3 l -2.4 0 2.1 1.5 c 3.2 2.2 2.6 4.1 -1.9 6.2 -3.5 1.6 -3.7 1.8 -1.6 1.9 1.4 0 3.8 -0.5 5.5 -1 4.2 -1.5 10.3 1.6 9.9 5 -0.7 6.2 -4.8 10.4 -10.2 10.4 -1.2 0 -2.6 0.5 -3 1.1 -0.5 0.8 0 0.9 1.6 0.5 7 -1.9 9.2 -1.8 10.4 0.3 1.4 2.7 0.5 6.7 -1.7 6.7 -1.3 0 1.7 3.3 1.7 4 0 0.7 1.1 -0.8 2.4 -3.2 3.9 -7.5 5.5 -7.4 5.7 0.6 0.1 2.9 0.4 5.5 0.8 5.9 1.8 1.8 0.6 6.1 -2.3 8.2 -2.2 1.6 -2.8 2.7 -2.5 4.4 0.3 1.3 -3 5.1 -5 5.7 -4.1 1 -5.5 0.5 -11 -4.6 -3.8 -3.5 -10 -6.1 -10 -4.2 0 0.8 -1.5 1.6 -3.6 2 -3.3 0.7 -3.4 0.7 -1.2 1.4 1.3 0.4 4.1 0.7 6.2 0.8 2.4 0.1 4.5 0.8 5.7 2 3.6 3.6 11.5 9.3 13.3 9.6 5.3 1 0.1 4.6 -7 4.7 l -3.4 0.1 3.1 1.4 c 5.4 2.4 5.6 8.8 0.2 10.6 -2.5 0.9 -2.8 1.1 -1.2 1.2 2.8 0.1 2.8 1.6 0 3 -1.2 0.6 -2.7 1.7 -3.4 2.4 -1.5 1.5 -7.4 -0.6 -8 -0.6 -0.7 0 0.8 4.8 1.6 5.1 2 0.8 1.8 4.1 -0.5 7.3 -1.8 2.6 -8.7 5.7 -12.5 5.7 -3 0 -7.9 -2.9 -10.3 -6.1 -2.6 -3.5 -6.8 -6.9 -6.8 -5.5 0 0.5 1.3 1.9 2.9 3 1.8 1.3 7.7 10.7 9 11 2.4 0.6 3.8 2.8 2.8 4.4 -0.3 0.5 -3.4 0.7 -7.4 0.4 -4.9 -0.4 -6.2 -0.3 -4.7 0.4 1.2 0.5 2.1 1.5 2.1 2.2 0 1.8 -7.1 7.3 -9.5 7.3 -2.9 0 -2.7 4.5 0.2 5.7 1.8 0.7 2.8 0.1 7 -4.1 2.6 -2.7 5.1 -5.7 5.5 -6.7 0.9 -2.3 3.9 -1.6 4.3 1 0.3 2.4 -1.9 6.2 -5.9 10.2 -1.8 1.8 -2.9 4 -3.1 6 -0.1 1.7 -0.7 4 -1.3 5 -0.6 1.1 -0.8 1.9 -0.6 1.9 0.2 0 -0.1 1.9 -0.7 4.3 -1.1 4.2 -1.3 4.4 -8.3 7.5 -12.3 5.4 -16.9 10 -15.6 16 0.5 2 0.1 2.9 -1.3 3.6 -1.1 0.6 -2 2 -2.2 3.2 -0.3 1.9 -1 2.2 -7.9 2.8 -4.2 0.4 -7.8 0.5 -8 0.3 -0.2 -0.2 -0.2 -1.1 0.1 -1.9 0.4 -1 1.8 -1.5 4.4 -1.5 4.7 0 5.4 -1 2.6 -3.7 -1.9 -1.8 -2.3 -1.9 -2.8 -0.6 -0.3 0.8 -1.3 1.5 -2.3 1.5 -0.9 0 -2.2 0.8 -2.9 1.9 -1.5 2.4 -3.1 2.5 -3.1 0.2 0 -1.9 -3.1 -5 -5 -5 -0.7 0 -2.2 -0.7 -3.4 -1.6 -2.1 -1.5 -2.2 -1.5 -1.2 0.4 1.5 2.9 1.3 4 -0.9 4 -1.4 0 -1.9 0.6 -1.9 2.5 0 2.5 0 2.5 6 1.9 5.9 -0.6 9.1 0.2 8 2.1 -0.3 0.5 -4.2 1.2 -8.6 1.6 -10.8 0.9 -17.7 3.2 -22.7 7.5 -2.2 2 -5.2 3.8 -6.5 4.1 -4.8 1.1 -10.4 5.2 -17.1 12.4 -3.7 4 -9.2 10.4 -12.1 12.2 -4.3 2.8 -5.8 4.4 -7.8 8.8 -1.4 3 -11.4 13.7 -14.2 19.3 -1.5 3.1 -3.4 6 -4.2 6.3 -3.4 1.3 -18.5 3.3 -29.1 3.8 -19.3 0.9 -38.2 7.1 -43.4 14.2 -0.8 1.1 -2.6 4.7 -4 8.1 -1.4 3.4 -4 9 -5.7 12.4 -4.3 8.3 -9.6 11.7 -26.6 17.1 -7.1 2.2 -16.5 5.4 -21 7 -7.7 2.8 -13.4 3.7 -17.6 2.8 z M 196.7 355.1 c 0.5 0 2.2 0.7 3.9 1.5 1.8 0.9 3.2 1.2 3.8 0.6 0.6 -0.6 -0.9 -1.5 -3.9 -2.5 -6.3 -2.1 -6.5 -2 -10.6 1.6 -2.9 2.6 -3.3 3.4 -2.2 4.1 1 0.6 2.3 -0 4.7 -2.2 1.8 -1.7 3.7 -3.1 4.2 -3.1 z m -16.3 -23.4 c 2.8 -1.5 5.6 -5.2 3.9 -5.2 -0.5 0 -2.1 1 -3.6 2.2 -1.5 1.2 -3.5 2.7 -4.6 3.3 -1.7 1 -1.7 1.1 -0.2 1.1 0.9 0 3 -0.6 4.5 -1.4 z m -49.8 -225 -0 -2.9 -0.7 2.9 c -0.4 1.6 -0.8 3.7 -0.8 4.8 -0.1 1.9 -0.1 1.9 0.8 0 0.5 -1.1 0.8 -3.2 0.8 -4.8 z m 274.3 6 c -1.2 -4 -1.3 -8.3 -0.1 -8.3 2.9 0 5.6 7.2 3.3 8.7 -1.8 1.2 -2.8 1.1 -3.2 -0.3 z" class="style1"/></g><path d="m 643.8 372.6 c -0.5 -0.3 -1.6 -2 -2.4 -3.6 -1.2 -2.3 -1.4 -3.4 -0.6 -4.8 0.8 -1.5 0.5 -2.4 -1.2 -4.7 -2.5 -3.3 -4.7 -9.2 -4 -10.9 0.2 -0.6 -0.3 -1.6 -1.3 -2.2 -1 -0.6 -1.7 -2.1 -1.7 -3.4 0 -1.3 0.4 -2.1 0.8 -1.8 1.1 0.7 2.2 -2.8 1.4 -4.1 -0.3 -0.6 0.2 -2.1 1.1 -3.4 2.6 -3.6 3.1 -5.5 1.9 -7.4 -0.8 -1.3 -0.8 -2.2 0.1 -4 1.1 -2 1 -2.6 -0.3 -4.6 -1.1 -1.6 -1.6 -4.7 -1.7 -10.8 -0.2 -7.3 0 -8.8 1.5 -10.5 1 -1.1 2.5 -1.9 3.4 -1.9 2.2 0 2.9 -1.4 1.7 -3.6 -0.7 -1.3 -0.7 -2.4 0.1 -3.8 0.6 -1.1 1.1 -4.1 1.2 -6.8 0.1 -3.2 0.5 -4.9 1.3 -5.1 1.5 -0.3 3.9 -6.5 4.2 -10.7 0.2 -3.9 1.9 -7.3 3.7 -7.3 0.7 0 1.4 -1.1 1.6 -2.5 0.2 -1.4 0.7 -2.4 1.2 -2.3 0.5 0.1 2 0.4 3.4 0.8 2.4 0.6 2.5 0.5 2.5 -3.1 l 0 -3.8 2.4 2.2 c 1.3 1.2 3.5 2.4 4.8 2.7 1.3 0.3 2.9 1.4 3.4 2.6 1.9 3.9 4 11.2 4 13.4 -0 1.2 0.6 3 1.5 3.9 1.3 1.5 1.4 1.8 0.2 2.6 -0.7 0.5 -2 0.8 -2.8 0.9 -2.1 0 -6.4 9.1 -5.2 11.2 1.5 2.8 -0.1 7 -4.8 12.1 -2.4 2.7 -4.4 5.3 -4.4 5.9 0 0.5 -0.4 0.7 -0.9 0.4 -0.5 -0.3 -0.7 0 -0.4 0.7 0.3 0.7 -0 1.9 -0.7 2.5 -0.8 0.8 -1.1 3.6 -1.1 8.3 0.1 6.5 1.1 9.7 3.1 9.7 0.4 0 1.9 1.1 3.2 2.4 2.2 2.2 2.3 2.7 1.4 5.3 -0.6 1.6 -1 3.6 -1 4.5 0 0.9 -0.5 1.5 -1.1 1.3 -1.2 -0.4 -6.2 4.3 -5.5 5.1 0.9 0.9 0.2 16.9 -0.8 19.2 -0.7 1.6 -1.8 2.3 -3.5 2.3 -2.7 0 -5.4 2.5 -5.4 4.8 0 1.7 -2.9 3.5 -4.1 2.6 z m 14.6 -11.5 c 0.4 -1.5 1 -3.1 1.4 -3.6 0.4 -0.5 0.4 0.5 -0.1 2.2 -1.1 3.9 -2.2 5 -1.3 1.4 z m 7.7 -8.5 c 0 -0.9 0.6 -2.4 1.4 -3.4 1.3 -1.7 1.3 -1.7 1 0.5 -0.2 1.2 -0.4 2.8 -0.4 3.4 -0.1 1.8 -1.9 1.3 -1.9 -0.5 z" class="style0"/><path d="" class="style0"/><path d="" class="style0"/><g transform="matrix(1.0536522,0,0,1.0536522,238.41323,18.739784)"/><g transform="matrix(0.55611256,0,0,0.55611256,507.66154,98.26492)"><path d="m 359.7 567.8 c -0.7 -1.2 -2.4 -2.2 -4.3 -2.6 -1.5 -0.3 -1.9 -0.8 -1.8 -2.3 0.1 -1.5 0.5 -1.6 5.3 -1.7 l 3.3 -0 0.5 -1.1 c 0.3 -0.7 1 -1.4 1.8 -1.8 0.9 -0.4 1.5 -1.1 2 -2 0.6 -1.2 0.8 -1.3 1.9 -1.3 1 0 1.7 -0.3 3.2 -1.5 2.1 -1.6 2.2 -1.8 1.7 -3.7 -0.4 -1.3 0.1 -2.2 1.5 -3.2 0.8 -0.6 0.9 -0.5 1.8 0.5 0.5 0.6 1.1 1 1.5 1 0.3 -0.1 1.1 -1 1.7 -2.1 l 1.2 -2 3.4 -0.1 3.4 -0.1 2.6 1.7 c 2.5 1.6 2.7 1.7 4.3 1.5 2.1 -0.3 2.2 -0.4 3.1 -2.1 0.4 -0.8 1.3 -2 2.1 -2.7 1.1 -1 1.3 -1.3 0.9 -1.5 -1 -0.7 -2 -0.3 -3.8 1.3 -1.5 1.5 -1.9 1.6 -3.2 1.6 -1.2 0 -1.7 -0.2 -3 -1.3 -1.3 -1.1 -1.7 -1.8 -2.4 -3.7 -0.9 -2.5 -1.7 -3.1 -2.8 -2.1 -0.8 0.7 -3.2 1 -3.8 0.6 -0.3 -0.2 -0.5 -1.4 -0.7 -2.8 l -0.2 -2.4 -1.7 0 c -1.5 0 -1.8 0.1 -2.4 1 -0.6 0.9 -0.8 1 -2.7 1 -1.8 0 -2 -0.1 -2.8 -1 -0.5 -0.6 -1.4 -1.6 -2.1 -2.3 -1 -1.1 -1.2 -1.5 -1.1 -2.3 0.1 -0.6 0.2 -1.9 0.4 -2.9 0.1 -1 0.4 -2 0.6 -2.2 0.3 -0.2 1.4 -0.2 3.6 0.2 l 3.1 0.5 0.7 -0.9 c 1.6 -2.1 1.8 -2.2 3.7 -1.9 l 1.8 0.2 3.5 -3 c 1.9 -1.7 3.6 -3.2 3.7 -3.4 0.4 -0.5 0.3 -5.5 -0.2 -6.2 -0.7 -1.1 -1.8 -2.4 -2.1 -2.4 -0.2 0 -1.1 0.6 -2 1.3 -2.2 1.6 -2.7 1.6 -3.4 -0 -0.8 -2 -0.7 -2.4 0.9 -3.2 1.3 -0.7 4.4 -3.9 4.4 -4.6 0 -0.2 -0.4 -1.2 -1 -2.2 -0.5 -1.1 -1 -2.1 -1 -2.4 0 -0.5 2.3 -2.8 2.8 -2.8 0.2 0 1.3 0.9 2.4 2.1 1.8 1.8 2 2.2 1.9 3.1 -0.1 0.9 -0.1 1 0.8 1 0.6 0 1.1 -0.2 1.3 -0.7 0.6 -1 1.6 -0.8 2.6 0.5 1.1 1.3 1.3 1.4 2.4 0.5 1.2 -0.9 3.2 -0.9 4.2 0.1 0.4 0.4 0.8 1 0.8 1.3 0 0.3 0.2 0.5 0.4 0.5 0.2 0 0.3 -0.2 0.1 -0.6 -0.6 -1.4 -0.5 -1.8 0.1 -2.5 0.6 -0.7 0.7 -1 0.5 -2.4 l -0.2 -1.6 1.6 -1.3 c 0.9 -0.7 1.7 -1.4 1.7 -1.5 0 -0.2 -0.5 -0.7 -1.2 -1.3 -1.2 -1 -1.2 -1 -0.8 -2.4 0.4 -1.5 0.4 -1.5 2.5 -1.4 l 1.4 0.1 -0.2 -1 c -0.2 -0.8 -0 -1.3 0.5 -2 1.1 -1.5 0.8 -1.8 -0.4 -0.5 -1 1 -1.3 1.2 -2 1 -1.2 -0.3 -1.7 -1 -1.7 -2.4 0 -0.8 -0.1 -1.1 -0.5 -0.9 -0.3 0.1 -0.8 -0.1 -1.2 -0.4 -0.6 -0.5 -0.7 -0.7 -0.3 -1.9 0.4 -1.5 0.1 -3.2 -1.1 -5.3 -0.4 -0.8 -0.7 -1.6 -0.6 -1.8 0.1 -0.2 1 -1.4 1.9 -2.7 0.9 -1.3 1.9 -2.8 2.2 -3.3 0.4 -0.7 0.8 -1.1 1.5 -1.3 0.5 -0.1 0.9 -0.3 0.8 -0.5 -0.3 -0.5 -1.3 -0.3 -1.9 0.4 -0.5 0.6 -0.8 0.6 -2.1 0.5 -1.3 -0.2 -1.7 -0.1 -2.9 0.7 -0.7 0.5 -2 1 -2.7 1 -1.3 0.2 -1.5 0.1 -2.5 -1.2 -1.2 -1.5 -1.6 -1.7 -1.6 -0.6 0 1.1 -1 2.5 -1.7 2.5 -0.4 0 -1.1 -0.8 -2.1 -2.3 -0.8 -1.3 -1.6 -2.3 -1.6 -2.3 -0.1 0 -0.4 0.2 -0.7 0.4 -0.5 0.3 -0.9 0.2 -2.4 -1 -2.5 -1.9 -2.7 -2.7 -0.9 -3.1 0.8 -0.2 1 -0.4 1 -1.3 0 -1.4 2.8 -5.6 5.5 -8.4 l 1.8 -1.9 -1 -2.1 c -1.2 -2.5 -1.2 -2.5 -0.4 -5.4 0.5 -1.7 0.9 -2.3 1.4 -2.6 0.7 -0.3 0.7 -0.4 0.3 -1.2 -0.2 -0.5 -0.5 -1.7 -0.6 -2.7 l -0.2 -1.9 -1.2 0.7 c -0.7 0.4 -1.9 1.1 -2.9 1.6 l -1.7 0.9 0.2 2.3 0.2 2.3 -1.3 1.2 c -1.1 1 -1.5 1.7 -2.3 4.5 -1.1 3.7 -1.6 4.4 -3.3 5 -1.7 0.6 -2.6 0.4 -3.1 -0.4 -0.6 -0.9 -0.3 -2 0.6 -2.8 0.7 -0.6 1.5 -2.3 2.3 -4.5 0.3 -1 1.1 -2.3 1.7 -3 1 -1.1 1 -1.2 0.5 -1.7 -0.5 -0.5 -0.5 -0.6 0 -1.5 0.5 -0.9 0.5 -1 -0.1 -1.2 -1.1 -0.3 -0.8 -1 0.9 -2.1 1.5 -1 1.6 -1.1 1.8 -2.7 0.1 -0.9 0.2 -2.1 0.2 -2.7 0 -0.7 0.3 -1.3 1.3 -2.2 0.7 -0.7 1.5 -1.8 1.8 -2.4 0.3 -0.7 0.9 -1.5 1.4 -1.7 0.5 -0.3 1.2 -0.8 1.7 -1.2 0.7 -0.6 0.7 -0.6 -0.6 0.1 -0.8 0.4 -2.1 1.6 -2.9 2.5 -2.4 2.9 -3.2 3.5 -4.8 4.1 -3.3 1.1 -7.3 0.3 -7.3 -1.6 0 -1 0.2 -1.1 2.6 -1.4 1.3 -0.2 2.1 -0.5 2.5 -0.9 0.7 -1 0.6 -1.7 -0.4 -1.9 -1.8 -0.4 -2 -0.5 -2.4 -1.1 -0.5 -0.9 -0.1 -1.6 1 -1.8 0.8 -0.2 0.9 -0.3 0.9 -1.2 0 -1.6 0.7 -2 2.5 -1.5 0.8 0.2 1.9 0.5 2.3 0.6 l 0.8 0.2 -0.7 -1 c -0.9 -1.3 -0.9 -3 0 -3.9 0.9 -0.8 2.7 -0.9 3.6 -0.2 0.8 0.6 1.8 0.6 2.6 0 0.6 -0.4 0.5 -0.5 -0.9 -1.5 -1.2 -0.9 -1.5 -1.2 -1.4 -1.9 0.1 -0.7 0.3 -0.8 1.8 -0.9 1.5 -0.1 1.7 -0.2 1.9 -0.9 0.5 -1.8 -0.1 -4.6 -1.3 -7.1 -1.4 -2.8 -1.9 -5.9 -1.1 -6.6 0.6 -0.5 1.4 -0.2 2.1 0.9 l 0.6 0.9 0.2 -1.5 c 0.1 -1.2 0.3 -1.5 0.9 -1.6 0.4 -0.1 1.1 0.2 1.7 0.7 1.7 1.5 2.1 1 0.6 -0.7 -1.1 -1.2 -1.1 -1.6 -0.7 -2.9 0.3 -0.8 1.4 -1.1 1.8 -0.5 0.5 0.7 0.8 0.2 0.8 -1.1 0 -1.9 0.6 -2.1 2.5 -0.8 2 1.3 2.5 1 0.7 -0.6 -1.1 -1 -1.3 -1.3 -1.2 -2 0.1 -0.5 0.6 -1 1.3 -1.4 1 -0.5 1.5 -1.2 2 -3.1 0.1 -0.4 0.4 -1.1 0.7 -1.4 0.5 -0.6 1.9 -0.8 2.2 -0.2 0.1 0.2 0.5 0.3 0.8 0.3 0.7 0 2.6 2.4 2.8 3.7 0.2 1.1 0.3 1.1 1.3 0.1 0.7 -0.8 0.9 -0.8 4.4 -0.8 4.2 0 9.2 0.5 11 1.1 1.6 0.6 1.8 1.8 0.5 4.1 -1.2 2.2 -2.9 3.6 -9.2 7.9 -2.9 2 -5.2 3.7 -5.2 3.8 -0 0.1 0.5 0.3 1.2 0.5 1.7 0.4 1.7 1.2 0.1 2.8 -1.3 1.3 -2 1.5 -3.5 1 -0.7 -0.3 -1 -0.2 -1.6 0.4 -1.4 1.3 -1 1.6 2.2 1.6 2.8 0 3.1 -0.1 5.1 -1.2 l 2.2 -1.2 2.2 1 c 1.3 0.6 2.7 1 3.5 1 1.9 0 7.9 1.2 10.4 2.1 2.9 1.1 4.3 2.3 4.3 3.9 0 0.8 -0.2 1.4 -0.7 1.8 -0.4 0.3 -1.1 0.9 -1.6 1.4 -0.7 0.5 -1 1.3 -1.4 2.8 -0.8 3.5 -3.5 7.2 -9.9 13.5 l -3.6 3.6 0.9 1.1 c 1.1 1.2 1.6 3.6 1 4.9 -0.5 1 -1.5 1 -3.5 0.1 l -1.5 -0.7 -0.8 1 c -0.7 0.9 -0.9 1 -3.2 1 -2.6 0 -3 0.2 -2.7 1 0.2 0.6 2.2 0.7 4.3 0.2 0.7 -0.2 2.7 -0.4 4.4 -0.5 3 -0.2 3.1 -0.2 4.2 0.7 1.2 1.1 2 2.4 3 5.5 0.9 3 1.7 4.2 3.5 5.4 1.7 1.2 1.7 1.5 0.9 6 -0.7 4.1 -0.8 12.7 -0 15.1 0.7 2.2 1.2 2.8 3.3 3.2 3 0.7 4.5 2 6.5 5.6 0.8 1.5 1.8 2.7 3.1 3.7 1.8 1.5 2.9 2.9 2.9 3.7 0 0.2 -0.6 0.9 -1.3 1.5 -0.7 0.6 -1.3 1.4 -1.3 1.8 0 0.3 0.8 2.1 1.8 3.9 2.3 4 2.5 5.4 0.9 6.2 -0.6 0.3 -1.1 0.6 -1.1 0.7 -0 0.1 0.4 1 0.8 1.9 1.6 3.1 2.4 5.7 2.4 7.6 0 1.5 -0.1 1.9 -0.9 2.6 -0.5 0.4 -1 0.8 -1.1 0.8 -0.5 0 -2.6 2 -2.6 2.5 0 0.5 1.9 1.9 2.2 1.7 0.1 -0.1 0.4 -0.7 0.7 -1.3 0.8 -1.6 2.4 -2.3 5 -2.1 4.3 0.3 9.1 2.6 12.2 5.7 2.6 2.7 3.2 5.4 2.1 10.4 -0.4 1.8 -1.9 4.3 -4.4 7.3 -1.7 2 -2.1 2.4 -3.2 2.5 -1.1 0.1 -1.2 0.2 -1.1 1.1 0 0.9 -0.1 1.1 -1.3 1.8 -0.7 0.4 -1.6 0.7 -2 0.8 -0.5 0 -0.7 0.2 -0.7 0.6 0 0.3 -0.4 1.3 -0.9 2.3 -0.7 1.4 -1.1 1.7 -2 1.9 -0.8 0.2 -1 0.3 -0.9 0.7 0.1 0.3 0.4 1.1 0.6 1.8 0.2 0.7 0.4 1.3 0.4 1.4 0 0.1 1.6 -0.2 3.6 -0.5 2.6 -0.4 3.6 -0.4 3.8 -0.2 0.4 0.4 -0.4 6.1 -1.1 7.2 -0.2 0.4 -0.9 0.6 -2.6 0.8 -2.1 0.2 -2.4 0.3 -3.3 1.4 -1.4 1.6 -1.8 1.8 -2.5 1.2 -0.5 -0.5 -0.9 -0.4 -4.8 1.3 -2.3 1 -4.5 1.8 -4.9 1.8 -0.4 0 -1.7 -0.7 -3 -1.5 l -2.2 -1.5 -4.1 0.3 c -2.2 0.2 -4.4 0.3 -4.9 0.3 -0.5 0 -2.1 -0.9 -4.2 -2.4 -1.9 -1.3 -3.5 -2.4 -3.6 -2.4 -0.1 0 -0.1 0.5 0.1 1 0.5 1.8 0.1 1.9 -4.7 1.7 l -4.3 -0.2 -0.3 1.3 c -0.3 1 -0.5 1.3 -1.2 1.4 -1 0.1 -5.3 -1 -13.7 -3.5 -3 -0.9 -5.5 -1.6 -5.6 -1.6 -0 0 -1 1.8 -2.1 4 -2.8 5.3 -2.8 5.4 -4 5.4 -0.5 0 -3.6 -1.3 -7 -2.9 -3.3 -1.6 -6.3 -2.9 -6.6 -2.9 -0.3 0 -0.8 0.5 -1.1 1.2 -0.5 1.1 -0.6 1.2 -1.6 1 -2.3 -0.5 -2.6 -0.4 -3.1 0.6 -0.7 1.5 -2 2.9 -3 3.3 -0.9 0.4 -1 0.3 -1.6 -0.7 z m 49.5 -67.7 c 0 -0.3 -0.8 -1.1 -1.6 -1.5 -0.3 -0.2 -0.1 0.2 0.3 0.8 0.7 1 1.3 1.3 1.3 0.8 z M 367.8 474.1 c -1.4 -1 -1.5 -1 -2.2 -0.3 -0.5 0.4 -0.8 0.4 -2.1 0.1 -1.7 -0.4 -2.1 -0.9 -1.6 -2.3 0.3 -0.8 0.2 -1 -0.9 -2 -1.1 -1 -1.3 -1.4 -1.5 -2.9 -0.2 -1.7 -0.3 -1.8 -1 -1.8 -1.5 0 -2 0.5 -2.2 2.3 -0.1 0.9 -0.4 1.8 -0.7 2 -0.2 0.2 -1.3 0.3 -2.5 0.3 l -2.1 -0.1 -2.9 -3.6 c -3.2 -4 -4 -5.5 -3.4 -6.1 0.2 -0.2 1.4 -0.7 2.5 -1 3.7 -1 3.6 -1 3.1 -2.2 -0.7 -1.6 -0.3 -2 2 -1.8 l 1.9 0.1 1.3 -2.4 c 1.9 -3.3 2.1 -3.5 3.4 -2.9 1.7 0.9 2.5 0.7 3.5 -0.8 0.9 -1.4 1.1 -1.5 2.7 -0.9 0.9 0.3 1.2 0.3 2.1 -0.2 1.5 -0.8 3.2 -0.5 5.7 1.1 l 2.1 1.3 -0.1 2.1 c -0.2 3.1 0.1 3.9 1.4 4.7 0.6 0.3 1.1 0.8 1.1 1 0 0.2 0.1 0.7 0.2 1.1 0.2 0.6 -0.1 1 -1.5 2.3 -1 0.9 -1.6 1.7 -1.4 1.8 0.2 0.1 1 0.1 1.9 -0.1 2.5 -0.5 2.5 -0.4 2.3 3.6 -0.1 2 -0.3 3.7 -0.4 4 -0.2 0.6 -1.2 0.8 -3.2 0.8 -2 0 -2.1 0.1 -3.2 2 -1.2 2.1 -2.5 2.4 -4.5 1.1 z" class="style0"/></g><path d="m 126.9 154.1 c -0.5 -0.2 -0.7 -0.9 -0.5 -1.5 0.3 -0.8 -0.2 -1.1 -1.5 -1.1 -1.1 0 -2.3 -0.5 -2.6 -1.1 -0.4 -0.7 -2.3 -1.3 -4.7 -1.5 -3.7 -0.3 -4 -0.3 -3.6 1.1 0.3 0.9 0.1 1.5 -0.5 1.6 -5.7 0.6 -8.7 1.1 -9.7 1.7 -1.7 1.1 -2.9 -4.7 -1.4 -7.1 0.8 -1.4 -1.9 -4 -3.5 -3.5 -1.5 0.5 -4.5 -2.1 -4.5 -3.9 0 -0.6 -0.3 -1.2 -0.6 -1.2 -0.3 -0 -0.6 -0.8 -0.7 -1.8 -0.1 -2.1 -3.6 -6.3 -5.6 -6.8 -0.9 -0.2 -2.1 0.5 -3.4 2.2 -1.1 1.4 -2.6 2.6 -3.2 2.6 -0.6 0 -1 0.3 -0.7 0.8 0.3 0.4 0.1 0.8 -0.4 0.8 -0.6 0 -0.5 0.6 0.3 1.9 1.7 2.6 1.6 3.2 -0.6 3.8 -1.3 0.3 -2.2 1.3 -2.7 3.2 -0.9 2.9 -2.4 4.5 -1.8 1.9 0.2 -0.9 0 -1.5 -0.5 -1.5 -0.8 0 -1.2 1 -1 2.5 0 0.3 -0.6 0.5 -1.4 0.4 -0.8 -0.1 -1.3 -0.4 -1.1 -0.7 0.4 -0.7 -2.9 -0.6 -3.9 0.2 -1.6 1.1 -4.5 0.1 -6.5 -2.2 -1.8 -2 -2.7 -2.4 -5.3 -2.4 l -3.2 0 0 -3.1 c 0 -2 -0.3 -3.1 -1 -3.1 -0.9 0 -2.7 -1.8 -6.7 -7 -0.9 -1.1 -1.6 -2.2 -1.6 -2.4 0 -0.2 1.1 -0.8 2.5 -1.4 1.4 -0.6 2.9 -1.6 3.5 -2.3 0.7 -1 1.7 -1.2 3.9 -0.9 2.4 0.3 3.3 0 5.1 -1.6 1.2 -1.1 2.6 -2 3.2 -2 0.6 0 1 -0.4 1 -0.9 0 -0.5 -0.5 -0.7 -1.1 -0.4 -0.6 0.2 -1.3 0.1 -1.6 -0.3 -0.3 -0.4 -0.8 -0.5 -1.2 -0.3 -0.8 0.5 -3 -1.4 -3 -2.5 0 -0.4 0.7 -1.1 1.6 -1.6 1.2 -0.7 1.9 -0.8 2.6 -0.1 0.8 0.6 1.7 0.6 3.6 -0.2 1.4 -0.6 3.3 -1 4.3 -0.9 1.2 0.1 1.7 -0.3 1.7 -1.3 0 -0.8 0.7 -1.7 1.5 -2.2 0.8 -0.4 1.9 -2 2.5 -3.5 0.5 -1.5 1.3 -2.7 1.6 -2.7 0.3 0 0.6 -0.7 0.6 -1.4 0 -2.5 2.1 -3.5 7.3 -3.4 4.7 0.1 5 -0 6.6 -2.4 1.6 -2.3 2 -2.5 5 -2.1 1.9 0.2 3.4 0 3.8 -0.5 0.3 -0.5 1.3 -0.9 2.2 -0.9 0.9 -0 2.6 -0.4 3.6 -1 1.3 -0.7 3 -0.8 5.4 -0.3 1.9 0.4 4.5 0.6 5.7 0.6 3.6 -0 5.1 1.2 5.1 4.2 0 2.1 0.3 2.7 1.3 2.5 1 -0.2 1.3 0.2 1.2 1.5 -0.1 1 0.2 1.7 0.8 1.8 1.2 0 6.7 5.1 6.7 6.1 0 0.4 0.8 1.1 1.7 1.6 1.7 0.9 1.7 0.9 0.3 -0.7 -1.6 -1.8 -1.2 -2.1 1.1 -0.9 2.6 1.4 1.9 4.4 -1.6 6.1 -2.9 1.5 -3.8 2.9 -2.6 4.1 0.3 0.3 1.3 0 2.2 -0.6 3.1 -2.1 11.2 -1.6 11.2 0.6 0 0.5 0.7 1.6 1.5 2.4 0.8 0.8 1.5 1.8 1.5 2.3 0 0.5 0.5 1.4 1.2 1.9 0.7 0.5 1.1 1.9 1 3 -0.1 1.1 0 2.4 0.3 2.8 0.3 0.5 0.3 1.6 0.1 2.5 -0.4 1.4 -0.7 1.5 -1.6 0.8 -0.9 -0.8 -1 -0.6 -0.6 1.1 0.6 2.5 -0.2 5.2 -1.6 5.2 -0.6 0 -1.1 0.4 -1.1 0.9 0 0.6 -0.3 0.6 -1.1 -0 -0.7 -0.6 -2.1 -0.7 -3.9 -0.4 -2.4 0.5 -2.7 0.4 -2.2 -0.8 0.4 -1 0.2 -1.2 -0.4 -0.8 -0.5 0.3 -0.8 1.1 -0.5 1.6 0.2 0.6 0.1 1.2 -0.3 1.5 -0.4 0.2 -0.5 2.2 -0.2 4.3 0.4 3.8 0.4 3.9 -2.8 6.9 -1.8 1.7 -3.3 3 -3.4 3 -0.1 -0 -0.5 -0.2 -1 -0.4 z m 15.9 -23.2 c 1.4 -0.6 1.8 -4.5 0.7 -7.1 -0.8 -1.9 -5.9 -5.1 -6.7 -4.3 -0.6 0.6 1.5 4.3 2.2 3.8 0.8 -0.5 1.8 6.2 1.1 7.3 -0.6 0.9 0.9 1 2.7 0.2 z M 112.9 86.9 c -0.7 -0.4 -0.8 -0.8 -0.2 -0.8 0.5 -0 1.1 0.3 1.4 0.8 0.6 1 0.3 1 -1.2 0 z" class="style2"/><path d="m 332.9 150.1 c -1.2 -1.4 -2.4 -7.8 -1.4 -7.8 0.4 0 1 0.4 1.5 0.9 0.5 0.5 1.9 0.8 3.3 0.6 1.8 -0.2 2.4 0.1 2.4 0.8 0 1.2 -2 6 -2.1 5 -0 -0.4 -0.4 -0.1 -0.8 0.5 -0.4 0.7 -1 1.2 -1.3 1.2 -0.3 0 -1 -0.5 -1.6 -1.2 z m 5.1 -9.3 c 0 -0.4 0.3 -0.5 0.7 -0.3 0.4 0.2 0.7 0.6 0.7 0.7 0 0.2 -0.3 0.3 -0.7 0.3 -0.4 0 -0.7 -0.3 -0.7 -0.7 z m -5.1 -4.4 c -0.7 -0.5 -1 -1.1 -0.7 -1.3 0.9 -0.9 -0.8 -0.4 -2.1 0.6 -1.1 0.9 -1.6 0.9 -3.3 -0 -1.1 -0.6 -2 -0.8 -2 -0.6 0 0.2 -0.9 -0.3 -2.1 -1.1 -1.5 -1.1 -2.1 -2.1 -2.1 -3.5 0 -1.1 -0.3 -2.2 -0.7 -2.4 -0.4 -0.2 -0.5 -0.8 -0.2 -1.2 0.3 -0.5 -0.1 -0.6 -1 -0.4 -0.8 0.2 -1.3 0.1 -1.1 -0.2 0.2 -0.4 0.2 -1.3 -0.1 -2.2 l -0.5 -1.6 -0.6 1.6 c -0.3 0.9 -0.9 1.6 -1.3 1.6 -0.4 0 -0.5 -0.4 -0.2 -0.9 0.3 -0.5 0.6 -1.2 0.7 -1.6 0.1 -0.4 0.4 -1.5 0.6 -2.4 0.4 -1.6 0.4 -1.6 -0.6 -0.5 -0.6 0.7 -1.3 1.2 -1.8 1.2 -0.4 0 -1.1 0.6 -1.5 1.4 -0.4 0.8 -1 1.4 -1.4 1.4 -0.4 0 -0.7 -0.6 -0.7 -1.4 0 -0.8 -0.6 -2 -1.3 -2.7 -0.7 -0.7 -1.2 -1.5 -1 -1.6 0.6 -0.6 -1.7 -2 -3.4 -2.2 -0.9 -0.1 -2.1 -0.4 -2.6 -0.8 -1.4 -0.9 -6.1 -0.5 -8.4 0.7 -1.1 0.6 -2.6 1 -3.4 1 -2.2 0 -6.8 2.6 -7.1 4.1 -0.3 1.1 -1.1 1.4 -4.5 1.6 -3.4 0.2 -4.7 0.7 -6.9 2.5 -3 2.4 -5.2 2.6 -8.2 0.6 -1.5 -1 -1.7 -1.3 -0.8 -2.2 1.5 -1.5 0.5 -5.1 -3.3 -12.6 -0.4 -0.8 -1.1 -2.2 -1.6 -3.2 -0.5 -1 -1.5 -2.4 -2.3 -3.1 -1.3 -1.2 -1.3 -2.9 0 -2.1 0.4 0.2 0.4 0.7 0.2 1.2 -0.3 0.5 -0.1 0.6 0.3 0.3 1.1 -0.7 1 -1.8 -0.4 -3.4 -0.8 -0.9 -1.2 -2.7 -1.3 -5.6 -0.1 -2.4 0.1 -3.9 0.3 -3.5 0.3 0.5 1.7 -0.4 3.6 -2.3 1.7 -1.7 3.7 -3.1 4.4 -3.1 0.7 0 2.1 -0.5 3.1 -1.2 1 -0.7 2.5 -1.3 3.3 -1.4 2 -0.3 4.6 -2.1 4.6 -3.3 0 -0.5 0.4 -1.3 0.9 -1.7 0.5 -0.4 0.8 -1.5 0.6 -2.4 -0.4 -2 1.6 -4 2.3 -2.3 0.6 1.5 1.8 0.6 1.3 -1 -0.3 -1 -0.1 -1.2 1.1 -0.9 1.3 0.3 1.4 0.2 1 -1 -0.3 -1 -0 -1.7 1.1 -2.5 0.9 -0.6 1.3 -1.1 0.9 -1.1 -0.4 -0 0.6 -0.7 2.3 -1.5 2.9 -1.5 3 -1.5 4.4 -0.2 1.7 1.5 5.9 2.2 5.4 0.9 -0.3 -1 2 -5.9 3.2 -6.6 0.4 -0.3 1.6 -0.5 2.5 -0.6 1 -0.1 2 -0.2 2.3 -0.2 1.1 -0.1 0.5 -2.2 -0.6 -2.2 -0.6 0 -1 -0.2 -0.8 -0.4 0.2 -0.2 1.9 0.1 3.8 0.8 1.9 0.6 4.4 1.2 5.6 1.2 1.2 0 2.3 0.3 2.3 0.6 0 0.3 0.3 0.6 0.7 0.6 0.4 0 0.5 -0.3 0.3 -0.7 -0.2 -0.4 -0.1 -0.7 0.3 -0.7 0.4 0 0.9 0.3 1.1 0.6 0.6 1 -0.3 2.9 -1.4 2.9 -0.6 0 -1 0.7 -1 1.7 0 0.9 -0.3 1.9 -0.7 2.1 -0.4 0.2 -0.7 0.7 -0.7 1 0 0.7 8.1 6.3 9.1 6.3 0.4 0 0.7 0.3 0.7 0.6 0 0.3 0.9 1 1.9 1.5 1.7 0.8 2 0.7 3.1 -0.7 1.4 -1.7 2.4 -5.2 2.8 -9.8 0.4 -3.9 1.9 -8.4 3 -8.4 0.8 0 2.7 6.3 3.1 9.9 0 0.3 0.5 0.5 1 0.5 1.5 0 3.2 2.4 3.2 4.5 0 1 0.3 2.5 0.7 3.2 0.4 0.7 0.8 2.4 0.9 3.9 0.2 1.6 0.8 2.9 1.5 3.3 3.3 1.8 5.5 5 6.1 8.5 0.1 0.8 0.5 1.4 0.9 1.4 1.4 0 2.4 1.1 2 2.1 -0.2 0.6 0.2 1.6 1.1 2.3 0.8 0.7 1.5 1.6 1.5 2.1 0 0.4 0.3 0.8 0.7 0.8 0.4 0 0.7 0.5 0.7 1 0 0.7 0.4 0.9 1.2 0.6 1.1 -0.4 1.1 -0.3 0.3 0.7 -0.6 0.7 -0.9 2.9 -0.9 5.4 0 5.9 -3.2 14.3 -6 15.5 -0.9 0.4 -5.7 8.5 -6 10.1 -0.3 2.2 -1.2 3 -3.2 2.9 -1 -0 -3 0.4 -4.3 1 -2 0.9 -2.7 0.9 -3.6 0.2 z m -20.5 -21.6 c -0.4 -1.2 -1.7 -1.6 -1.7 -0.6 0 0.7 1.6 2.3 1.9 2 0.1 -0.1 0 -0.8 -0.2 -1.4 z m 3.9 -2.8 c -0.6 -0.6 -0.7 -0.3 -0.5 0.9 0.5 2.5 0.5 2.6 0.9 1.1 0.2 -0.7 -0 -1.6 -0.4 -2.1 z m 5.5 0.9 c 0 -0.4 -0.3 -0.7 -0.7 -0.7 -0.4 0 -0.7 0.3 -0.7 0.7 0 0.4 0.3 0.7 0.7 0.7 0.4 0 0.7 -0.3 0.7 -0.7 z m -5.4 -4.7 c 0.5 -0.8 -0.8 -3.7 -1.6 -3.7 -0.4 0 -0.7 0.6 -0.7 1.4 0 0.8 0.3 1.4 0.7 1.4 0.4 0 0.5 0.3 0.3 0.7 -0.2 0.4 -0.1 0.7 0.3 0.7 0.4 0 0.8 -0.2 1 -0.5 z m -3.7 19.1 c 0 -0.7 2.1 -1 2.5 -0.4 0.2 0.4 -0.2 0.7 -1 0.7 -0.8 0 -1.4 -0.1 -1.4 -0.3 z M 296.6 58.2 c -0.9 -0.9 -0.5 -1.5 1.3 -1.5 1 0 1.7 0.3 1.5 0.8 -0.3 0.9 -2.1 1.4 -2.8 0.7 z" class="style2"/><path d="m 451.7 80 c 0.1 -0.6 0.4 -1.5 0.6 -2 0.3 -0.5 0.4 -1.8 0.3 -2.9 -0.1 -1.3 0.3 -1.8 1.1 -1.5 1.7 0.6 1.6 -1 -0.1 -2.5 -0.8 -0.7 -2.4 -0.9 -3.7 -0.5 -1.8 0.5 -3 -0 -5.1 -2.2 -3.1 -3.1 -5.8 -3.6 -7.1 -1.3 -1.1 2 -9.4 1 -9.4 -1.2 0 -1.2 -0.2 -1.1 -1.6 0.2 -1.4 1.4 -2.8 1.5 -11.6 0.9 -10.8 -0.7 -22.2 -2.5 -29.7 -4.6 -3.5 -1 -5 -2 -6 -3.9 -1.4 -2.7 -3.2 -4.9 -4 -4.9 -0.3 0 0.4 1.4 1.4 3.2 1 1.8 1.7 3.7 1.5 4.4 -0.2 0.6 -1.3 -0.6 -2.4 -2.8 -1.9 -3.7 -1.9 -4.1 -0.6 -6.2 0.8 -1.2 1.1 -2.2 0.6 -2.2 -0.5 0 -0.7 -0.9 -0.5 -2 0.2 -1.1 -0.1 -2.3 -0.6 -2.6 -0.7 -0.4 -0.5 -1.4 0.6 -3 0.9 -1.4 1.3 -2.8 0.8 -3.6 -0.4 -0.7 -1 -3.5 -1.2 -6.2 -0.4 -4.1 -0.8 -5 -2.1 -4.9 -1.1 0.1 -1.6 -0.5 -1.6 -2 0 -1.2 -0.5 -2.3 -1.1 -2.5 -0.7 -0.2 1.7 -4.1 6.2 -10.1 6.5 -8.6 7.5 -9.6 8.5 -8.2 0.7 0.8 1.9 1.6 2.8 1.7 0.9 0.1 2.9 0.3 4.6 0.4 1.7 0.2 3 0.8 3 1.5 0 0.7 0.5 1.2 1.1 1.3 0.6 0.1 1.6 0.2 2.1 0.2 2.1 0.3 6.7 4.6 6.3 5.8 -0.4 1.2 1.1 1.7 3.9 1.4 0.6 -0.1 1.5 0.8 2 2 l 1 2.1 0.2 -2.3 c 0.1 -1.3 0.1 -2.6 0.1 -3 -0.2 -1.2 1 -0.8 2.9 0.9 1.7 1.5 7.4 2.3 6.5 0.9 -0.2 -0.4 -0 -0.7 0.5 -0.7 0.5 0 1 0.6 1.2 1.4 0.2 0.9 0.6 0.6 1.4 -1 0.9 -1.9 0.8 -2.6 -0.5 -3.9 -1.8 -1.8 -2 -4.9 -0.3 -5.5 0.7 -0.2 1.4 0.7 1.7 2.4 0.3 1.6 0.9 2.8 1.4 2.8 0.4 0 0.8 0.7 0.9 1.6 0 1 0.3 1.1 0.5 0.5 0.7 -1.8 2.1 -1.4 2.1 0.6 0 1 0.4 2 0.9 2.4 0.9 0.6 1.3 -0.9 1.1 -4.9 -0.1 -1.6 0.3 -2 1.3 -1.6 0.8 0.3 1.6 0.5 1.8 0.5 0.2 0 0.4 0.7 0.4 1.7 0 0.9 0.4 2.1 1 2.6 1.1 1.1 -1.5 4.3 -2.9 3.5 -0.5 -0.3 -0.9 0 -0.9 0.7 -0.3 4.2 -0.7 5.8 -1.7 6.1 -0.6 0.2 -1.5 1.3 -2 2.3 -0.5 1.1 -1.5 3 -2.2 4.3 -1.7 3 -1.7 7.3 -0 7.9 0.7 0.3 1.6 1.3 1.9 2.3 0.4 1.2 1.4 1.8 3.5 1.8 1.6 0 3.7 0.6 4.7 1.4 1 0.7 3.1 1.4 4.8 1.4 2.5 0 3.1 0.4 3.5 2.6 0.8 3.5 5 7.3 6.1 5.5 1.1 -1.7 1 -2.7 -0.5 -5.7 -1.2 -2.3 -1.2 -2.8 0 -4.7 1.6 -2.4 0.5 -6.6 -1.9 -7.5 -0.8 -0.3 -1.4 -1.3 -1.4 -2.3 0 -1 -0.6 -3 -1.4 -4.5 -1.5 -3 -1.1 -4.7 0.9 -4 0.7 0.3 1.5 0.1 1.8 -0.4 1 -1.7 7.2 1 8.3 3.5 0.8 1.9 1.4 2.3 3.3 1.8 1.8 -0.4 2.3 -1.1 2.1 -3 l -0.2 -2.5 2.9 1.5 c 1.6 0.8 3.6 2.2 4.3 3.1 2.4 2.7 4.8 3.6 7.1 2.7 1.9 -0.7 2 -0.6 1.2 1 -1.4 2.6 -1.1 3.4 0.4 1.4 0.7 -1 1.4 -1.4 1.4 -1 0 0.4 0.6 0.3 1.4 -0.3 1.1 -0.9 1.5 -0.7 2.4 1.3 0.6 1.3 1.4 2.4 1.9 2.4 0.4 0 0.8 0.9 0.8 1.9 0 1 0.4 1.7 0.8 1.4 0.5 -0.3 1.1 0 1.3 0.6 0.4 0.9 0.7 0.9 1.3 -0.1 0.7 -1 1.4 -0.9 3.7 0.9 3.4 2.5 3.5 2.7 0.8 2.5 -1.3 -0.1 -2 0.2 -1.8 1 0.1 0.7 -0.2 1 -0.7 0.7 -0.5 -0.3 -2 0.1 -3.2 1 -1.3 0.8 -2.4 1.4 -2.4 1.2 -0 -0.2 -0.3 -2.4 -0.6 -4.9 -0.6 -5.4 -0.7 -5.7 -2.6 -4.1 -0.8 0.6 -1.2 1.4 -1 1.6 1.1 1.1 -1.7 4.1 -5.3 5.8 -4 1.9 -6.3 5.3 -7.4 11.5 -0.5 2.4 -0.3 2.3 1.2 -0.9 1.9 -4 5.3 -7.6 6.3 -6.5 0.4 0.4 0.1 1.5 -0.6 2.6 -1 1.7 -1 1.9 0.2 1.4 0.8 -0.3 1.6 0.1 1.9 0.8 0.8 2 6.6 1.3 6.3 -0.7 -0.3 -1.8 1.2 -3.1 2 -1.8 0.6 1 -3 7.4 -4.2 7.4 -0.5 0 -0.8 0.8 -0.8 1.8 0 1 -0.4 2 -0.9 2.4 -0.5 0.3 -0.9 -0.4 -0.9 -1.7 0 -1.3 0.7 -2.7 1.6 -3.2 1.4 -0.8 1.4 -0.9 0.1 -1 -0.8 -0 -2 0.6 -2.6 1.4 -1.2 1.4 -3.7 1.9 -3.7 0.7 -0 -1.7 -1.6 -3 -3 -2.5 -1 0.4 -1.5 1.6 -1.5 3.7 0 2.8 -0.4 3.3 -3.6 4.6 -2 0.8 -4.3 2.4 -5 3.6 -0.8 1.2 -2.3 2.4 -3.3 2.8 -1.1 0.3 -1.8 1.1 -1.5 1.7 0.2 0.6 -0.9 1.9 -2.6 3 -1.6 1.1 -2.9 1.5 -2.8 0.9 z m 25.4 -30 c 0 -0.5 0.6 -0.9 1.4 -0.9 0.8 0 1.2 0.4 0.9 0.9 -0.3 0.5 -1 0.9 -1.4 0.9 -0.5 0 -0.9 -0.4 -0.9 -0.9 z M 370 43.6 c -0.3 -0.5 -0.1 -0.9 0.4 -0.9 0.5 0 1 0.4 1 0.9 0 0.5 -0.2 0.9 -0.4 0.9 -0.2 0 -0.7 -0.4 -1 -0.9 z m 65 -16.4 c -0.7 -0.4 -1.1 -1.6 -0.9 -2.7 l 0.3 -1.9 3.7 1.8 c 2 1 2.9 1.7 1.8 1.5 -1 -0.2 -2.3 0.2 -2.8 0.9 -0.6 0.7 -1.4 0.9 -2.1 0.4 z m 16.1 -4.4 c -3.2 -1 -4.8 -1.1 -5.5 -0.4 -1.4 1.4 -2.5 1.2 -2.5 -0.3 0 -0.7 0.8 -1.6 1.9 -1.9 1.1 -0.3 1.6 -1 1.2 -1.6 -0.4 -0.6 -0.7 -2.1 -0.7 -3.3 -0.1 -2.9 -7.1 -7 -9.7 -5.6 -0.9 0.5 -2.9 0.9 -4.5 0.9 -2.2 0 -2.7 -0.3 -2.2 -1.5 0.4 -1 0.2 -1.3 -0.5 -0.9 -0.7 0.5 -1.1 -0.3 -1.1 -2.6 0 -1.8 0.4 -3.5 0.9 -3.8 0.5 -0.3 0.9 0.4 0.9 1.7 0 1.3 0.4 2.5 0.9 2.8 0.5 0.3 0.8 -0.6 0.7 -2 -0.2 -2.3 0.2 -2.6 3 -2.8 2.3 -0.2 2.8 -0 1.9 0.6 -0.7 0.5 -1.7 0.7 -2.1 0.4 -0.4 -0.2 -0.5 0.2 -0.2 1 0.4 1.2 0.8 1.2 1.9 0.3 1.1 -0.9 1.7 -0.9 3.1 0 1 0.6 2.3 0.8 2.8 0.5 0.7 -0.4 0.8 -0.2 0.3 0.6 -0.6 0.9 -0.2 1.1 1.2 0.7 1.1 -0.3 2 -0.1 2 0.4 0 0.5 0.4 0.6 0.9 0.3 0.5 -0.3 0.9 0.1 0.9 0.8 0 1.4 2.8 3.5 4.3 3.2 0.4 -0.1 1.9 -0.1 3.2 -0 2.1 0.1 2.5 0.5 2.3 2.4 -0.2 2 -1.6 3.4 -1.6 1.6 0 -0.4 -0.8 -0.7 -1.8 -0.7 -2.8 0 -2.2 2 1 3.3 1.5 0.6 3.2 2 3.8 3 0.9 1.7 0.8 1.8 -1.5 1.2 -1.6 -0.4 -2.3 -0.3 -1.9 0.3 0.3 0.5 1.4 1 2.4 1 1 0 1.8 0.4 1.8 0.9 0 1.2 -2.3 1.1 -7.7 -0.6 z m -30.4 -7.6 c -0.6 -1 0.8 -2.1 1.7 -1.3 0.9 0.9 0.7 2.1 -0.3 2.1 -0.5 0 -1.1 -0.4 -1.4 -0.9 z m -14.3 -1.1 c 0 -0.6 -0.7 -1.6 -1.6 -2.3 -1.5 -1.1 -1.3 -1.2 1.1 -1.3 l 2.8 -0.1 -2.8 -1.3 c -1.5 -0.7 -2.2 -1.3 -1.5 -1.3 1 -0.1 1 -0.4 0.2 -1.4 -0.9 -1 -0.7 -1.6 0.9 -2.7 1.8 -1.2 2.2 -1.2 3.3 -0.1 0.7 0.7 1.7 1.1 2.1 0.8 0.4 -0.3 1 0.5 1.2 1.6 0.4 2 0.4 2 0.5 0.1 0.1 -1.1 0.7 -2.4 1.3 -2.9 0.9 -0.8 1.2 -0.2 1.3 2.7 0.1 2.1 0.8 4.4 1.7 5.5 1 1.1 1.2 1.8 0.5 1.8 -0.6 0 -0.9 0.4 -0.5 0.9 0.3 0.5 -0.3 0.9 -1.3 0.9 -1 0 -1.9 -0.5 -1.9 -1.1 0 -0.9 -0.2 -0.9 -1.1 0 -1.4 1.4 -6.3 1.4 -6.3 0.1 z m 34.9 0.1 c 0 -0.5 0.4 -0.9 0.9 -0.9 0.5 0 0.9 0.4 0.9 0.9 0 0.5 -0.4 0.9 -0.9 0.9 -0.5 0 -0.9 -0.4 -0.9 -0.9 z M 418.8 6.8 c -0.9 -1 -1.2 -1.9 -0.7 -1.9 0.6 0 0.8 -0.6 0.5 -1.4 -0.3 -0.8 0 -1.4 0.8 -1.4 1.5 0 2.8 4.6 1.7 5.8 -0.4 0.4 -1.4 -0.1 -2.4 -1.1 z M 399.7 5.2 c -0.4 -1.9 2.1 -6.7 3.5 -6.7 0.5 -0 1.8 0.6 2.8 1.4 1.5 1.2 1.6 1.5 0.4 2.2 -0.8 0.5 -2.4 1.7 -3.6 2.8 -2.7 2.3 -2.6 2.3 -3 0.3 z M 422.9 4.2 c 0 -2 0.4 -2.9 1.4 -2.9 1.7 0 1.7 1.8 -0 4.1 -1.3 1.7 -1.4 1.6 -1.4 -1.1 z m -12.5 -5.6 c 0.3 -0.5 -0.1 -1 -0.8 -1.2 -1 -0.2 -1.1 -0.7 -0.5 -1.7 0.8 -1.2 1.1 -1.2 2.1 0.2 0.7 0.9 1.5 1.6 1.8 1.6 0.3 0 0.3 -0.7 -0 -1.6 -0.6 -1.5 -0.5 -1.5 1.1 0 0.9 0.9 1.4 1.9 1.1 2.3 -1 1 -5.3 1.3 -4.7 0.3 z m 8 -0.4 c -0.8 -1 -0.7 -1.5 0.3 -2.4 1.2 -1 1.4 -0.8 1.4 1.3 0 2.7 -0.3 2.9 -1.7 1.2 z m 3.6 0.1 c 0 -0.5 0.4 -0.6 0.9 -0.3 0.5 0.3 0.9 -0.3 0.9 -1.5 0 -1.9 0.1 -1.9 1.6 -0.6 1.2 1.1 2 1.2 3.3 0.5 2.2 -1.3 4.6 0.7 2.4 2 -1.7 1.1 -9.2 0.9 -9.2 -0.2 z m -0.5 -3.5 c -0.3 -0.5 -0.1 -0.9 0.4 -0.9 0.5 0 1 0.4 1 0.9 0 0.5 -0.2 0.9 -0.4 0.9 -0.2 0 -0.7 -0.4 -1 -0.9 z m -15.2 -1.4 c 0.6 -0.8 1.8 -1.4 2.6 -1.4 1.3 0 1.2 0.2 -0.3 1.4 -2.3 1.8 -3.8 1.7 -2.4 -0 z m 19.3 0.8 c 0 -0.5 0.5 -1.4 1.1 -2 0.9 -0.9 0.9 -1.3 -0.1 -1.9 -0.9 -0.6 -1 -0.9 -0.2 -1.4 0.8 -0.5 0.8 -1 -0.1 -2.1 -0.9 -1.1 -1 -1.5 -0 -1.8 2 -0.7 1.3 -1.6 -1.1 -1.6 -2.7 0 -2.8 0.2 -0.9 2.3 1.4 1.6 0.9 4.9 -0.7 4.4 -0.5 -0.2 -0.8 -0.6 -0.7 -1.1 0.1 -0.4 -0.3 -1.1 -0.9 -1.5 -0.6 -0.4 -0.9 -1.5 -0.5 -2.4 0.3 -0.9 0.6 -2 0.6 -2.4 0.1 -2 4.6 -5.3 7.2 -5.3 2.7 0 2.8 0.1 2.6 3.5 -0.1 1.9 -0.5 3.9 -0.8 4.4 -0.3 0.5 -0.2 2.6 0.2 4.7 0.5 2.7 0.4 3.9 -0.3 3.9 -0.6 0 -2 0.3 -3.1 0.6 -1.1 0.3 -2.1 0.2 -2.1 -0.3 z M 420.7 -8.5 c -0.3 -0.3 -0.6 -1 -0.6 -1.6 0 -0.6 0.4 -0.5 1.1 0.1 0.6 0.6 0.9 1.3 0.6 1.6 -0.3 0.3 -0.8 0.2 -1.1 -0.1 z m -3.4 -1.7 c -0.6 -0.8 -1 -1.6 -0.7 -1.9 0.3 -0.3 1 0.2 1.6 1 0.6 0.8 1 1.6 0.7 1.9 -0.3 0.3 -1 -0.2 -1.6 -1 z" class="style2"/><path d="m 564.3 147.6 c -0.8 -1.4 -1.7 -1.6 -4.6 -1.3 -5.2 0.6 -10.4 -2.2 -10.2 -5.6 0.2 -3.3 3.7 -3.8 6.6 -1.1 l 2.1 2 1.9 -1.9 c 2 -2 3.9 -2.1 7 -0.4 1.5 0.9 1.6 1.2 0.6 2.5 -0.7 0.8 -1.5 2.8 -1.8 4.5 -0.6 2.7 -0.7 2.8 -1.6 1.3 z m -21 -4.3 c -0.6 -1.5 0 -3.4 3.2 -9.1 2 -3.8 2.4 -2.1 0.5 2.2 -0.7 1.6 -1.7 4.1 -2.2 5.7 -0.7 2.1 -1 2.4 -1.5 1.3 z m -24.9 -2.6 c -0.5 -0.5 -2.8 -1 -5.1 -1.2 l -4.1 -0.3 -0.2 -6.9 c -0.1 -3.8 -0.2 -7.4 -0.2 -7.9 -0 -0.6 -0.9 -1.3 -1.9 -1.5 -1.6 -0.4 -1.8 -0.2 -1.3 1.4 0.4 1.3 0.3 1.7 -0.5 1.2 -0.6 -0.4 -0.9 -1.4 -0.7 -2.3 0.2 -0.9 -0.2 -2.4 -0.8 -3.3 -1.2 -1.7 -1.3 -1.7 -1.3 0 0 1.6 -0.2 1.6 -1.4 0.4 -1 -1 -1.2 -2.1 -0.5 -4.3 0.5 -1.6 0.6 -3.8 0.3 -4.9 -0.5 -1.7 -0.2 -1.9 1.6 -1.3 2 0.6 2.1 0.5 1.5 -2.4 -0.6 -3 -2.2 -4.8 -3.5 -4 -0.4 0.2 -0.6 -1.5 -0.5 -3.8 0.1 -3.1 0.5 -4 1.4 -3.7 1 0.4 1 0.2 0.3 -0.7 -1 -1.2 -1.5 -4.3 -1.3 -7.8 0.1 -2.1 0.1 -2.1 2 -0.2 1 1 2.7 1.8 3.7 1.8 1 0 2.1 0.6 2.4 1.4 0.9 2.3 2.4 1.5 1.9 -1 -0.3 -1.6 0.1 -2.7 1.3 -3.5 0.9 -0.7 1.4 -1.5 1.1 -1.8 -0.3 -0.3 -1.2 -0.1 -1.8 0.4 -0.9 0.8 -1.6 0.7 -2.6 -0.1 -0.9 -0.7 -1.4 -0.8 -1.4 -0.2 0 0.5 0.4 1.2 0.9 1.6 0.5 0.3 0.7 1 0.4 1.5 -0.4 0.6 -1 0.5 -1.8 -0.2 -0.7 -0.6 -1.1 -1.4 -0.8 -1.9 0.3 -0.4 -0.1 -0.6 -0.8 -0.3 -0.9 0.4 -1.5 -0.3 -2 -2.3 -0.5 -2.2 -0 -3.6 2.3 -7 2.4 -3.5 3.2 -4.1 5 -3.6 1.2 0.3 2.4 0.1 2.8 -0.5 0.3 -0.5 2.2 -1 4.2 -1 5.4 0 6.2 -0.6 10.2 -7.5 2.9 -5 4.2 -6.3 5.9 -6.3 1.2 0 3.4 -1 4.9 -2.3 3.3 -2.8 5.6 -3.1 2.9 -0.4 -1.3 1.3 -1.7 2.4 -1.2 3.5 1.2 2.8 1.5 9.5 0.5 11.5 -0.6 1.1 -1.4 3.1 -1.9 4.5 -0.9 2.5 -1 2.5 -3.5 1.1 -2.5 -1.5 -2.5 -1.5 -0.6 0.2 1.8 1.7 3.2 6.3 3.5 11.6 0.2 3.2 1.9 4.3 5.6 3.7 4.7 -0.8 5.6 1.4 3.1 7 -2 4.3 -3.5 6 -3.5 3.8 0 -0.6 -1 -0.7 -2.5 -0.3 -2.3 0.6 -2.4 0.5 -1.3 -0.9 0.7 -0.9 1 -1.8 0.7 -2.2 -1.3 -1.3 -3.8 4 -3.8 8 -0 3.9 -0.2 4.1 -2.7 4.3 -2.9 0.2 -4.6 1.2 -2.1 1.2 1.1 0 1.4 0.6 1.2 2.1 -0.3 1.6 -0.9 2.1 -3.1 2.1 -1.8 -0 -2.6 0.4 -2.3 1.2 0.2 0.6 0.9 1.2 1.4 1.2 0.5 0 0.2 0.8 -0.7 1.9 -2.1 2.3 -2.5 4.3 -1.4 7.5 0.7 2.1 0.5 2.7 -1 3.5 -1.1 0.6 -1.6 1.6 -1.4 2.3 0.3 0.7 0.1 1.3 -0.4 1.3 -0.5 0 -0.9 0.4 -0.9 1 0 0.5 0.4 0.7 1 0.4 0.5 -0.3 2 0.1 3.2 0.9 1.2 0.8 2.3 1.1 2.3 0.6 0 -0.5 -0.6 -1.1 -1.4 -1.4 -0.8 -0.3 -1.2 -1 -0.9 -1.5 0.9 -1.4 6 2.8 6 4.9 0 1.3 -0.3 1.5 -1.2 0.9 -1.2 -1 -4.4 -1.2 -4.4 -0.3 0 0.3 -0.9 0.6 -2.1 0.7 -1.1 0.1 -2.9 0.4 -3.9 0.7 -1 0.3 -2.3 0.2 -2.8 -0.3 z m 1.8 -54.5 c 0.5 -0.5 0.3 -0.8 -0.6 -0.8 -1.2 0 -1.4 -1 -1.2 -5.1 0.1 -2.8 -0.1 -5.3 -0.5 -5.5 -0.4 -0.3 -2.7 0.3 -5.1 1.2 -2.7 1.1 -3.9 2 -3.3 2.4 0.6 0.4 1.7 0.2 2.5 -0.5 1.2 -1 1.3 -0.8 0.8 1.3 -0.6 2.5 0.2 3.2 2.2 1.5 0.6 -0.5 0.9 -0.7 0.7 -0.4 -0.2 0.3 0.2 1.2 1 2 1.2 1.2 1.2 1.6 -0.1 3.7 -1.5 2.2 -1.4 2.3 0.7 1.6 1.2 -0.4 2.5 -1 3 -1.5 z M 508.8 80.7 c 0 -0.5 -0.2 -0.9 -0.4 -0.9 -0.2 0 -0.7 0.4 -1 0.9 -0.3 0.5 -0.1 0.9 0.4 0.9 0.5 0 1 -0.4 1 -0.9 z m 18.2 -6.1 c 2.6 -0.7 2.7 -1.7 0.2 -1.9 -1 -0.1 -1.8 0.2 -1.8 0.7 0 0.4 -1.1 1 -2.5 1.2 -2.4 0.4 -2.4 0.4 -0.2 0.5 1.3 0.1 3.2 -0.1 4.4 -0.4 z m 10.5 65.8 c -1.8 -1.8 -1.3 -2.5 1.1 -1.4 1.2 0.6 2 1.4 1.8 1.8 -0.6 1 -1.6 0.9 -2.9 -0.4 z m 30.7 -1.6 c -0.5 -0.8 3.3 -3.8 4.9 -3.8 0.5 0 1.4 0.6 2 1.4 1 1.3 0.9 1.4 -1.3 0.8 -1.8 -0.5 -2.6 -0.2 -3 0.9 -0.6 1.6 -1.8 1.9 -2.6 0.7 z m -27.2 -2.4 c 0 -0.9 -1.3 -1.6 -3.7 -2 -2.7 -0.4 -3.6 -1 -3.2 -1.9 0.3 -0.8 -0.4 -1.7 -1.6 -2.2 -1.1 -0.5 -2.5 -2.3 -3.1 -3.9 -0.5 -1.6 -1.3 -3.7 -1.7 -4.6 -0.6 -1.4 -0.4 -1.6 1.6 -1.1 1.4 0.3 2.6 0.1 3 -0.5 0.4 -0.6 1.7 -1.4 3 -1.9 2.9 -1.1 5.2 0.5 4.3 3 -0.5 1.6 -0.3 1.7 1.3 0.8 1.1 -0.6 1.7 -1.6 1.4 -2.4 -0.3 -0.8 -0.1 -1.4 0.5 -1.4 1 0 1.4 1.8 1.1 4.3 -0.1 0.6 0.3 1.3 0.8 1.7 1.5 0.9 1.1 6.5 -0.7 10.1 -1.7 3.4 -3 4.2 -3 1.9 z m 22.1 -1.6 c -1.2 -1.2 -1.5 -2.2 -0.9 -2.6 0.5 -0.3 -0.7 -1.1 -2.8 -1.7 -2.1 -0.6 -4.1 -0.9 -4.5 -0.6 -1.3 0.8 -3.8 -3.7 -2.7 -4.8 0.6 -0.6 0.6 -1.6 -0.1 -2.9 -0.6 -1.1 -0.8 -2.3 -0.5 -2.8 0.3 -0.5 -0.2 -1.4 -1.1 -2.1 -2.7 -2 -2.5 -3.8 0.3 -3.3 1.9 0.4 3.1 -0.2 5.1 -2.2 1.5 -1.5 2.4 -3.1 2.1 -3.6 -0.3 -0.5 0.5 -0.9 1.8 -0.9 1.3 0 2.4 0.4 2.4 0.9 0 0.5 -0.3 0.9 -0.7 0.9 -0.4 0 -0.7 0.8 -0.7 1.9 0 2.7 3.7 2 4.1 -0.8 0.2 -1.7 0.5 -1.9 1.6 -1 1.1 0.9 1.2 0.8 0.8 -0.4 -0.3 -0.8 -1.3 -1.5 -2.1 -1.5 -1.1 -0 -0.7 -0.7 1.2 -2.3 4.4 -3.6 11.8 -2.6 9.7 1.3 -1.1 2.1 0.4 9.4 2.2 10.7 1.4 1 1.3 1.1 -0.2 1.5 -1 0.2 -2.3 0.1 -3.1 -0.3 -1.8 -1 -5.3 1.5 -5.3 3.8 0 1 0.6 1.8 1.3 1.8 0.7 0 1.8 0.8 2.3 1.8 1 1.9 0.1 3 -2.6 3.4 -0.7 0.1 -1.9 0.8 -2.7 1.6 -1.3 1.3 -1.3 1.4 0 1.4 1.1 0 1.3 0.6 1 2.3 -0.6 2.9 -3.2 3 -5.7 0.3 z m 4.2 -20.8 c -0.9 -0.9 -1.7 0.5 -0.9 1.7 0.6 0.9 0.8 0.9 1.1 0 0.2 -0.6 0.1 -1.4 -0.2 -1.7 z m -61.3 18.2 c 0 -1 0.3 -1.8 0.7 -1.8 0.4 0 0.7 0.8 0.7 1.8 0 1 -0.3 1.8 -0.7 1.8 -0.4 0 -0.7 -0.8 -0.7 -1.8 z m 35 -20.7 c 0 -0.7 0.4 -1.6 0.9 -1.9 0.5 -0.3 0.9 0.3 0.9 1.3 0 1 -0.4 1.9 -0.9 1.9 -0.5 0 -0.9 -0.6 -0.9 -1.3 z m 6.9 -43.9 c -0.7 -1.2 -0.6 -1.4 2.2 -2.2 2 -0.6 2 -0.5 0.9 1.3 -1.3 2.1 -2.2 2.4 -3.1 0.9 z" class="style2"/><g transform="matrix(0.15461193,0,0,0.15461193,144.97026,-4.31099)" class="style2"><path d="m 380.1 510.8 c -1.1 -0.2 -3.8 -1.1 -6 -1.9 -3.5 -1.3 -4.5 -1.3 -6.4 -0.2 -1.3 0.7 -4.1 0.4 -4.8 0.9 -0.8 0.7 -2.8 0.2 -6.4 -1.4 -2.9 -1.3 -32.1 -15.6 -38.9 -17.2 -3.4 -0.8 -10.3 -1.4 -15.4 -1.5 -8.7 -0 -9.6 -0.2 -15.7 -3.4 -4.9 -2.5 -9.1 -6 -17 -14.1 -9.6 -9.8 -24 -21.7 -30.1 -24.7 -7 -3.5 -17.1 -9.5 -18.1 -10.7 -1.6 -2 -11.4 -2 -11.4 -0.1 0 2 -1.3 2.5 -8.9 4 -10.7 2 -13.2 1.8 -16.2 -1.6 -1.6 -1.9 -3.2 -2.8 -4.2 -2.5 -0.9 0.3 -3.5 1.2 -5.9 2.1 -6 2.2 -22.2 2.1 -28.6 -0.2 -3.4 -1.2 -5 -1.4 -5.5 -0.7 -0.4 0.6 -2.4 1.4 -4.5 1.8 -2.1 0.4 -4.4 1.1 -5 1.7 -0.7 0.6 -2.7 0.8 -4.5 0.5 -1.8 -0.3 -4.6 -0.2 -6.2 0.3 -3.7 1.1 -5.3 -1.3 -4 -6.1 0.7 -2.5 0.6 -3.5 -0.6 -4.7 -1.4 -1.4 -1.3 -1.9 1 -6.4 2.5 -4.8 2.5 -4.9 0.7 -6.9 -2 -2.2 -2.4 -5.5 -0.9 -7 0.5 -0.5 1.4 -3.7 2 -6.9 0.6 -3.6 1.6 -6.2 2.5 -6.5 2.2 -0.8 6.6 4.3 9.2 10.7 2 4.9 2.7 5.8 5.3 6.3 2.4 0.5 3.2 0.2 4.1 -1.3 0.6 -1 3.1 -2.9 5.5 -4.1 3.8 -1.9 4.8 -2.1 7.2 -1.2 2.5 0.9 3.2 0.8 6.2 -1.5 1.8 -1.4 4.5 -2.5 5.9 -2.5 2.6 0 3.3 -1.7 1.5 -3.5 -0.6 -0.6 -0.8 -2.1 -0.4 -3.6 0.6 -2.2 1.1 -2.5 3.5 -2.1 2.6 0.4 2.7 0.3 1.1 -1.1 -0.9 -0.9 -2.4 -1.8 -3.3 -2.2 -2.3 -0.9 -2.1 -3.6 0.2 -3.6 1 0 2.1 0.4 2.4 0.9 0.3 0.5 2.6 1 5.1 0.9 4 0 4.7 -0.3 6.1 -3 1.6 -2.9 1.6 -3 -0.2 -3.4 -1.1 -0.3 -1.9 -1.3 -1.9 -2.3 0 -1.2 -0.7 -1.8 -1.9 -1.8 -3.3 0 -2.5 -4.8 1.7 -9.2 2 -2.1 4.4 -4.8 5.5 -6.1 l 1.9 -2.3 -3.3 2.2 c -5.8 3.8 -9.7 5.1 -12.8 4.4 -1.6 -0.3 -4.3 -0.7 -6 -0.7 -1.7 -0.1 -3.1 -0.5 -3.1 -0.9 0 -0.5 2 -2.9 4.4 -5.5 4.2 -4.5 4.3 -4.7 2.8 -7 -1.4 -2.2 -1.4 -2.8 0.9 -9.8 1.3 -4.1 3.1 -8.2 4 -9.2 1.5 -1.6 1.4 -1.7 -0.4 -1.7 -2.2 0 -5 3.3 -5 5.9 0 1.2 -1.4 2.1 -4.9 3.1 -4.5 1.4 -5.1 1.3 -6.7 -0.1 -1 -0.9 -4.5 -7.4 -3.6 -9 1.4 -2.7 0.5 -5 -1.9 -4.3 -2.3 0.7 -2.6 0.2 -3.8 -7 -0.5 -3.3 -1.8 -7 -2.9 -8.4 -1.9 -2.4 -2.7 -5.7 -1.2 -4.7 0.4 0.2 1.4 -1.4 2.3 -3.8 l 1.5 -4.2 -2.8 -1.6 c -3.1 -1.9 -3.5 -3.5 -1.1 -5 1.1 -0.6 -0.6 -1.7 -0.3 -2.9 0.5 -1.5 0.2 -1.7 -1.6 -1.3 -1.2 0.3 -3.2 1.1 -4.6 1.8 -2.8 1.5 -6.4 1.7 -7.2 0.4 -0.3 -0.5 -14.4 -3.3 -20.1 -3.9 -7.2 -0.8 -11.9 -1.8 -15.4 -3.4 -6.1 -2.8 -7.4 -2.9 -10 -0.2 -1.7 1.7 -3 2 -7.9 1.9 l -5.8 -0.2 -1.9 4.1 c -1.2 2.7 -2.6 4.1 -3.8 4.2 -9.3 0.7 -11.2 0.6 -11.9 -0.5 -0.4 -0.7 -5.3 -2.4 -6 -3.4 -0.4 -0.6 -0.7 -2.1 -0.7 -3.3 -0 -1.3 -1.4 -4.7 -3 -7.6 -3.5 -6.3 -4.9 -10.3 -3.6 -11.1 0.5 -0.3 2.2 -0.6 3.7 -0.6 1.8 -0.1 10.1 -4.7 11.3 -5.1 1.7 -0.5 2.3 -0.3 2.7 1.3 0.6 2.3 1.4 2.7 7.2 3.5 3.3 0.5 4.5 0.3 5.5 -0.9 0.7 -0.8 2.1 -1.5 3.1 -1.5 1 0 2.5 -1.2 3.5 -2.9 1.3 -2.3 2.2 -2.9 5 -2.9 1.9 0 3.9 -0.5 4.6 -1.2 0.9 -0.9 1.7 -0.6 3.5 1.7 1.3 1.6 2.3 3.4 2.4 4.1 0 0.7 0.6 1.1 1.2 0.9 0.7 -0.3 1.2 -2.3 1.2 -5.4 0 -6.3 1.8 -8 6.7 -6.5 1.8 0.6 3.3 1.6 3.3 2.3 0 1.7 1.5 1.6 4.9 -0.4 2.1 -1.2 3.2 -1.4 4.4 -0.7 1.2 0.7 2.3 0.6 4 -0.2 1.8 -0.9 1.9 -1.2 0.7 -1.3 -2.8 -0 -1.9 -1.7 1.7 -2.9 1.8 -0.6 3.3 -1.4 3.3 -1.8 0 -0.4 1.1 -1.9 2.5 -3.4 l 2.5 -2.7 1.8 2.7 c 1 1.5 1.7 3.6 1.6 4.6 -0.5 3.8 1.1 4.6 4.4 2.1 1.9 -1.4 13.8 -3.6 15.4 -4 2.1 -0.5 4.1 0.1 7.5 1.9 3.3 1.7 5.5 2.3 7.7 2 1.8 -0.3 4.2 0.1 5.8 1 3.5 1.8 8.5 2.5 12.6 1.8 3.1 -0.6 1.9 -6.3 4 -10.4 3.5 -6.8 5 -13 3 -13 -0.4 0 -1.6 0.8 -2.6 1.7 -6.8 6.2 -11.2 9 -14.6 9.5 -5.7 0.8 -15.7 -1.5 -20.6 -4.6 -4.6 -2.9 -8.4 -3 -10.6 -0.3 -1.3 1.6 -6.2 3.5 -7 2.8 -0.3 -0.3 0.2 -1.9 1.1 -3.5 2 -3.6 0.8 -5.7 -2.2 -3.8 -2.7 1.7 -2.9 1.5 -1.8 -1.6 0.7 -1.9 2 -3.1 4 -3.8 1.7 -0.6 11.6 -10.2 12.8 -12 1.2 -1.8 2.7 -3.3 3.4 -3.3 2.4 0 23.4 -13.3 24.1 -13.3 0.7 0 5.9 -5.7 9.9 -5.3 l 4.3 0.5 -2.9 -1.4 c -1.6 -0.8 -4 -1.4 -5.5 -1.4 -2.1 -0 -2.6 -0.5 -2.6 -2.2 -0 -1.2 -0.6 -2.9 -1.3 -3.8 -1.2 -1.6 -1.3 -1.6 -1.8 0.2 -0.8 3 -3.5 2.4 -4.2 -0.9 l -0.6 -2.9 -1.6 3.1 c -0.9 1.7 -1.9 4.2 -2.2 5.6 -0.7 3 -2 3.6 -6 3 -2.1 -0.3 -4.2 -1.9 -7.4 -5.5 -5 -5.8 -4.9 -6 3.2 -8.6 5.5 -1.8 7.6 -3 7.6 -4.5 0 -0.5 -1.2 -0.1 -2.6 0.9 -4.2 2.9 -6 3.3 -6.7 1.4 -1 -2.5 -3.8 -2.3 -4.4 0.3 -0.3 1.2 -1.4 2.7 -2.4 3.2 -3 1.6 -4 -0.9 -4 -10.3 -0 -4.8 -0.4 -8.7 -0.9 -8.7 -0.5 0 -0.9 0.8 -0.9 1.7 -0 1.9 -2.2 8.5 -3.1 9.4 -0.4 0.4 -0.7 -1.9 -0.7 -5 -0 -7.1 -1.3 -5.4 -3 3.8 -1.2 6.6 0.7 7.6 -2.4 3.7 -1.1 -1.4 -2.1 -12.1 -2.6 -12.4 -0.6 -0.3 -0.7 2.7 -0.2 8.1 0.4 4.8 0.4 9.1 0.1 9.6 -0.9 1.4 -6.5 -0.8 -5.9 -2.3 0.3 -0.7 -5.1 -3.7 -5.1 -3.8 0 -0.1 4.7 -9.2 4.7 -10 -0 -0.9 -0.3 -0.8 -0.9 0.5 -0.5 1.1 -4.9 6.5 -5.7 5.2 -0.5 -0.8 -0.9 -1 -1 -0.4 -0 0.5 -1.3 1.8 -3 2.7 -2.2 1.3 -3.2 1.5 -4 0.7 -0.6 -0.6 -1.8 -1.1 -2.7 -1.1 -0.9 0 -2.3 -1 -3.1 -2.1 -1.4 -2.1 -1.5 -1.9 -1.5 3.3 -0.1 4.5 -0.4 5.7 -2.2 6.9 -2.7 1.9 -7.3 1.9 -9.7 0 -1 -0.8 -2.5 -1.4 -3.4 -1.4 -2.7 0 -17.6 6.7 -19.1 8.7 -1.1 1.4 -3 2 -7.6 2.4 -7.5 0.6 -10.3 -0.7 -11.9 -5.3 -0.7 -2.2 -2.6 -4.4 -5.8 -6.5 l -4.7 -3.2 -9.9 0.5 c -9.9 0.5 -14.4 -0.3 -14.4 -2.6 0 -1.6 6.9 -7.9 9.1 -8.3 1.2 -0.2 2 -1.2 2.2 -2.7 0.2 -1.3 1.4 -4.6 2.7 -7.4 l 2.5 -5 3 2 c 1.6 1.1 4.4 2.6 6.1 3.4 1.9 0.8 10.7 9.9 11.8 9.9 1.8 0 1.7 -0.3 -1.1 -3.4 -3 -3.5 -4.8 -7 -4.8 -9.5 0 -1.1 0.9 -1.2 4.1 -0.8 2.2 0.3 4.7 1 5.5 1.6 0.8 0.5 -0.4 -0.6 -2.6 -2.5 -6.3 -5.5 -7.9 -8.9 -7.9 -16.2 0 -5.2 0.3 -6.5 1.8 -7.3 1.8 -1 22.5 14 24.3 14.8 1.8 0.7 4.8 3.2 6.7 5.4 3.2 3.7 3.4 4.5 2.9 7.9 -0.6 3.6 -0.5 3.7 0.8 1.9 0.8 -1.1 6.5 -2.5 7.4 -3.4 1.5 -1.6 1.4 -1.7 -1.1 -2.2 -3.1 -0.6 -8.4 -6.9 -7 -8.2 0.5 -0.5 3.9 -1.3 7.5 -1.8 10.8 -1.6 12.4 -2 13.7 -4.1 1.2 -1.9 1.1 -1.9 -1 -0.4 -2.7 1.9 -15.4 2.1 -22.8 0.4 -6 -1.4 -10.4 -5.5 -15 -13.8 -2.8 -5.1 -2.7 -8.4 0.2 -11.3 3.3 -3.3 6.1 -2.9 12.5 1.9 3.1 2.3 6.4 4.3 7.4 4.3 0.9 0 3 1 4.5 2.1 1.5 1.1 3 1.9 3.3 1.6 0.3 -0.3 -1.5 -1.7 -4 -3.3 -10.8 -6.8 -20.3 -17.4 -20.3 -22.7 0 -3.3 1.9 -8.2 3.2 -8.2 2.4 0 8.4 2.6 10.4 4.6 1.2 1.1 3 2.1 3.9 2.1 0.9 0 2.6 0.5 3.8 1 1.1 0.6 0.4 -0.4 -1.7 -2.1 -9.9 -8.2 -10.3 -8.7 -9 -11.5 0.9 -2 1.9 -2.6 4.1 -2.6 2.7 -0 2.8 -0.2 1.3 -1.3 -2.1 -1.6 -2.1 -2.5 -0.2 -2.5 0.8 0 3.9 -4.8 4.7 -4.8 0.8 0 2.2 -0.6 3.2 -1.1 5.2 -2.7 15.4 6.9 16.5 7.3 2.5 0.8 5.6 5.9 5.7 9.3 0 2.4 0.2 2.5 2.4 1.5 3.2 -1.5 5.3 0.3 5.3 4.6 0 2.1 0.5 3.2 1.3 3.2 0.7 0 5.4 1.3 6.2 2.2 0.6 0.7 0.8 1.5 0.5 1.8 -0.7 0.7 0.5 4.5 1.4 4.5 0.4 0 0.8 -2.2 0.9 -5 0.3 -5.8 0.5 -6.2 2.5 -4.6 0.8 0.7 2.1 0.9 2.9 0.6 1.1 -0.4 1.9 0.4 2.9 2.8 0.8 1.9 4.8 8 5.5 9.3 1.1 2.1 1.4 2.2 2.3 0.8 0.9 -1.4 1.2 -1.3 2.1 1.1 0.6 1.5 1.7 2.9 2.5 3.2 1.6 0.6 3.6 6.8 2.7 8.4 -0.4 0.7 -0.3 0.7 0.5 0 0.7 -0.7 0.9 -3 0.5 -7 -0.5 -4.8 -1.3 -6.8 -3.9 -10.2 -2.6 -3.5 -3 -4.5 -2.1 -5.7 0.6 -0.8 0.8 -1.4 0.3 -1.4 -0.5 -0 0 -0.7 1.1 -1.5 1.9 -1.4 1.8 -1.4 -0.5 -0.9 -2 0.5 -2.6 0.1 -3.6 -1.8 -0.7 -1.6 -3 -3.3 -6.3 -4.7 -11.2 -5 -20.6 -13.1 -20.6 -17.8 -0 -2.8 7.2 -6.8 12.2 -6.9 5.4 -0 12.2 2.5 14.6 5.4 l 1.8 2.1 -0.5 -2.1 c -0.4 -1.8 -0.1 -2.2 1.7 -2.2 1.2 -0 3.1 -0.5 4.2 -0.9 1.4 -0.6 0.7 -0.7 -2.1 -0.3 -2.7 0.4 -4.1 0.2 -4.1 -0.5 0 -0.6 -1.9 -1.9 -4.3 -2.9 -3 -1.3 -4.3 -2.4 -4.3 -3.7 0 -1.6 -0.5 -1.8 -3.7 -1.4 -2.1 0.3 -4 0.1 -4.3 -0.5 -0.4 -0.7 -1.5 -0.6 -3.2 0.3 -5.1 2.5 -9 2.6 -13 0.2 -2 -1.2 -4.6 -3.3 -5.6 -4.7 -1.6 -2.2 -1.7 -2.8 -0.7 -4.1 0.7 -0.8 1.9 -1.3 2.8 -1 5.8 1.7 6.6 1.7 7.7 -0.4 0.9 -1.7 0.8 -2 -0.5 -1.8 -0.9 0.2 -2.1 -0.5 -2.7 -1.6 -0.6 -1 -1.9 -2.5 -2.8 -3.4 -1.7 -1.5 -1.7 -1.6 0.1 -3.8 1.6 -1.9 2.2 -2.2 4.1 -1.4 2.9 1.2 6.8 0.6 6.2 -0.9 -0.7 -1.9 0.5 -3.1 3.8 -3.8 2.4 -0.5 3.4 -0.2 5.2 1.6 3.6 3.7 8.4 6.6 9.9 6 0.8 -0.3 1.9 -1.8 2.4 -3.4 1.3 -3.6 3 -3.6 6.2 -0 1.4 1.6 3 2.9 3.6 2.8 0.6 -0 0.4 -0.4 -0.4 -0.9 -1.3 -0.8 -1.2 -1.1 0.2 -2.5 1.6 -1.6 1.7 -1.5 3.6 0.1 1.1 1 2.4 3.5 3 5.6 1.1 4.1 5.2 9.2 7.4 9.2 0.9 0 1.1 0.7 0.7 2.5 -0.6 2.2 -0.5 2.4 0.8 1.3 1.2 -1 1.6 -1 2.1 0.4 0.3 0.9 0.2 2.5 -0.4 3.7 -1.2 2.6 -1.4 6.6 -0.2 5.9 0.5 -0.3 1.1 -0.1 1.4 0.5 0.4 0.6 1.1 0.4 2 -0.5 1.9 -1.9 4.5 -1.9 3.8 0.1 -0.9 2.3 0.2 3.3 2.6 2.4 2.5 -1 5.4 0.3 5.4 2.4 0 0.8 0.5 1.4 1.1 1.4 0.6 0 0.8 0.8 0.6 1.8 -0.6 2.2 1.7 5.8 3.6 5.8 0.8 0 5.7 2.8 6.9 3.8 1.8 1.5 2 2.2 1.3 4.1 -1.3 3.4 -1.2 14.6 0.1 13.3 0.6 -0.6 1.6 -0.8 2.3 -0.5 0.8 0.3 1.3 -0.1 1.3 -1 0 -1.7 2.9 -2.8 5.1 -2 0.9 0.3 2.3 1.9 3.1 3.5 1.4 2.7 1.4 3 -0.1 4.1 -2 1.5 -0.3 2.7 2.1 1.5 1.3 -0.7 2.8 -0.3 6.1 1.8 2.4 1.5 4.7 3.2 5.1 3.9 0.9 1.5 -1.3 2.8 -4.7 2.8 -2.7 0 -2.7 0.1 -1 1.4 1 0.7 1.5 1.7 1.1 2.1 -0.4 0.4 0.7 1.2 2.4 1.7 4 1.3 5.8 6.2 3.2 9.1 -1 1.1 -1.4 2.6 -1.1 3.7 0.7 2.2 -2.4 9.8 -5.2 12.6 l -2 2 1.9 1.6 c 1.9 1.6 1.9 1.6 -1 5.9 -3.7 5.5 -4.3 5.8 -10 4.9 -3.6 -0.5 -4.9 -1.2 -5.8 -2.9 l -1.1 -2.2 -1.1 2 c -2.5 4.7 3.4 9.6 11.5 9.7 1.4 0 3.1 0.7 3.8 1.5 1.1 1.3 0.9 2.1 -1 5.5 l -2.2 4 2.8 -2.6 c 3 -2.8 5 -3.3 6.8 -1.5 1.5 1.5 0.4 11.9 -1.5 14.9 -1.2 1.9 -1.2 2.1 0.1 2.1 0.8 0 1.5 0.6 1.5 1.2 0 0.7 1.1 2.2 2.4 3.3 2.2 1.9 2.7 8.4 3.1 9.1 1.4 1.7 2.1 12.2 1 14.2 -1.1 2 0.6 8.8 2 7.9 1.2 -0.8 2.2 -9 2 -17.9 -0.2 -8.8 0.4 -12.2 2.1 -12.2 1.4 0 3.5 3 3.6 5.2 0.1 1.1 1.1 4 2.4 6.7 l 2.3 4.8 -0.6 -4.3 c -0.3 -2.4 -1.2 -5.9 -1.9 -8 -1.8 -5 -1.6 -8.2 0.5 -14.7 1 -3 2.1 -6.6 2.4 -8.1 0.3 -1.4 3.9 -6.1 8 -10.2 l 7.4 -7.6 3.1 1.2 3.1 1.2 -0.6 5.9 c -0.6 5.8 -0.5 6 1.9 6.6 1.4 0.3 4.1 0.1 6.1 -0.5 2 -0.6 4.3 -1.1 5.2 -1.1 2.7 0 4.2 -2.3 6.2 -9.7 2.3 -8.3 2.5 -14.8 0.5 -18.6 -0.8 -1.5 -6.5 -24.2 -7.7 -34.6 -0.1 -0.6 0.6 -3.2 0.7 -6 0.1 -5 0.1 -5.1 3.8 -6.2 2 -0.6 4.8 -1.2 6 -1.2 1.3 0 3 -0.6 3.8 -1.4 1.7 -1.7 4.9 -1.9 6.3 -0.2 4.2 5 14 27.7 14.8 28.4 0.8 0.7 1.4 1.9 1.4 2.8 0 1 1.8 2.5 4.3 3.7 3.6 1.8 4.7 3 6.7 7.4 1.3 2.9 2.3 6.9 2.3 8.8 0 2 0.6 4.4 1.4 5.5 1.4 1.8 1.4 1.8 2 -0.3 0.8 -2.7 3.8 -2.8 5.4 -0.2 1.5 2.4 3.5 2.5 4.2 0.2 0.3 -0.9 1.2 -2.4 1.9 -3.2 1 -1.2 1.1 -2.1 0.4 -3.5 -0.6 -1.2 -0.7 -2.9 -0.2 -4.7 0.7 -2.3 -5.8 -15.9 -6.8 -17.1 -1.5 -1.7 -1.7 -2.4 -0.8 -4 0.6 -1.1 1.9 -2 3 -2 1.7 0 1.9 -0.6 1.6 -5 -0.2 -3.9 0.2 -5.7 1.8 -7.8 1.8 -2.4 2.7 -2.8 7.1 -2.9 2.8 -0.1 6.1 0.2 7.3 0.6 1.5 0.5 3 -2.1 4 -2.7 1.2 -0.7 2.1 -2.7 2.5 -5.5 0.5 -3.1 1.4 -5 3.5 -6.7 4.7 -4 10.3 -2.4 8.9 2.6 -0.6 2.2 -0.6 2.2 0.8 -0.1 0.7 -1.3 1.1 -3 0.9 -3.9 -0.6 -2.2 1 -3 4 -2.3 1.7 0.4 2.6 1.4 3 3.4 0.3 1.5 0.9 2.5 1.4 2.2 0.5 -0.3 2.5 0.9 4.7 2.6 4 3.2 4.8 6 2.6 8.5 -1 1.1 -0.9 1.1 0.5 0 1.5 -1.1 2 -1 3.8 0.8 1.8 1.8 2.1 3.1 2.1 9.7 v 7.6 l 6.2 2.3 c 6.3 2.3 10.5 6.4 10.5 10.3 0 0.9 4.4 12.5 5.1 13.6 0.7 1.1 1.6 4.5 2 7.5 1.1 9.1 2 7 2.3 -5.5 0.3 -12.8 0.4 -12.6 -6 -17 -2 -1.4 -2.4 -2.3 -1.9 -4.4 0.4 -1.8 0.1 -3 -0.9 -3.9 -2.3 -1.9 -3.8 -6.2 -5.7 -16.3 -1.6 -8.3 -1.6 -9.6 -0.3 -13.3 1.6 -4.9 1.6 -4.9 15.9 -2.3 9.4 1.7 12.9 2.9 12 4.3 -0.3 0.5 1.3 2.1 3.6 3.7 5 3.5 9.3 8.9 10.1 12.9 0.8 3.8 4 5.1 10.2 3.9 l 4.5 -0.9 1.9 -7.8 c 1.5 -6.2 2.3 -8 4.1 -8.8 2.2 -1 3 -4.3 1.3 -5.3 -1.6 -1 -1.1 -3 1.6 -6.2 1.6 -1.9 3.1 -2.8 4.2 -2.6 1 0.3 1.8 -0.2 2.1 -1.1 0.3 -1.2 1.5 -1.6 4.6 -1.5 5.2 0.1 6.5 0.9 6.5 3.7 0 1.2 0.9 3 1.9 3.9 1.1 0.9 1.9 2.5 1.9 3.5 0 1 0.7 1.8 1.4 1.8 2.1 0 20.4 -12.3 21.1 -12 3.2 1.2 7.4 -10.4 5.2 -14.4 -1.6 -2.9 -4.8 -14.7 -4.8 -17.5 0 -1.4 -1.1 -3.9 -2.4 -5.4 -2.2 -2.6 -2.3 -3 -1.2 -7 l 1.2 -4.2 6.1 -0.2 c 4.6 -0.2 6.6 0.2 8 1.4 1.2 1.1 2 1.3 2.2 0.5 0.2 -0.6 1.2 -2.1 2.2 -3.2 1 -1.2 1.9 -2.5 1.9 -2.9 0 -0.9 5.4 -0.5 7.9 0.6 1.3 0.5 1.9 0.2 2.3 -1.4 0.6 -2.1 2.9 -2.2 2.4 -0.2 -0.1 0.6 6.4 5.8 7.6 6.1 1.7 0.5 1.9 0.8 0.9 2 -0.8 1 -1 2.7 -0.5 5.4 0.6 3.3 1 3.9 2.5 3.4 1.1 -0.3 8.6 3.5 10.3 5.2 3.5 3.5 3.8 6.9 1 12.5 -2.2 4.6 -2.4 5.6 -0.7 5.3 0.7 -0.1 1.2 0.8 1.2 2.6 0 2.5 0.3 2.9 2.5 2.9 1.4 0 7.5 2.1 8.3 2.8 4.9 4.6 7.2 6.2 8.9 6.2 1.5 0 1.8 -0.5 1.4 -2.1 -1.7 -7.2 -1.8 -9.4 -0.3 -11.1 1.1 -1.2 2.5 -1.6 4.4 -1.3 4 0.6 8.5 -1.5 9.2 -4.2 0.3 -1.3 6.7 -10.8 10.3 -13.5 2.9 -2.2 5.6 -4 6 -4 0.4 0 1.5 0.9 2.4 1.9 1.9 2.2 4.5 2.3 9.8 0.4 2.1 -0.8 4.8 -1.4 6.1 -1.4 l 2.3 -0 -2.1 2.3 c -2 2.1 -4.7 3.5 -12.3 6.3 -1.9 0.7 -3.1 1.8 -3.1 2.9 0 1 -1.8 2.7 -4.3 4.2 -2.4 1.4 -4.3 2.7 -4.3 3 0 0.3 0.9 1.7 1.9 3.1 4.1 5.5 -1.2 16.6 -9.2 19.2 -2.3 0.8 -3.3 1.7 -3.3 3 0 1.5 0.4 1.8 1.7 1.2 5 -2.1 5.2 -2 4.7 2.7 -0.3 3.3 -0.1 4.2 0.8 3.9 0.7 -0.3 9.7 1.8 10.5 2.8 1 1.4 1.4 1.3 3.7 -0.9 1.4 -1.4 2.5 -2.8 2.5 -3.2 0 -0.4 1.1 -1.2 2.5 -1.8 3.6 -1.6 5.3 0.3 8.5 9.7 2.4 7.1 2.5 8.2 1.5 12.1 -1.2 4.7 -4.8 10.6 -8.9 14.5 -2.9 2.8 -1.9 9.8 -0.6 6.2 l -3.1 8 c 0 0 15.3 -3.6 24.6 -8.8 2.8 -1.5 5.4 -2.8 5.9 -2.8 1.8 0 2 3.3 0.5 7.8 -1.5 4.6 -1.5 4.7 0.6 7 1.2 1.3 5.4 4.4 9.4 7.1 7.5 4.9 10.2 5.6 15.9 4 3.8 -1.1 9.3 1.3 8.7 3.7 -0.2 0.9 0.4 2.1 1.4 2.7 1 0.6 1.8 1.8 1.8 2.5 0 1.8 1.3 1.8 2.9 -0 0.7 -0.8 1.6 -1.4 2 -1.4 1.6 0 6.5 6.2 6.5 8.3 0 1.1 0.5 2.4 1 2.7 0.6 0.3 0.7 1.3 0.4 2.2 -0.4 0.9 -0.8 4 -0.9 7 -0.4 8 -2.5 11.3 -7.1 11.3 l -2.4 0 2.1 1.5 c 3.2 2.2 2.6 4.1 -1.9 6.2 -3.5 1.6 -3.7 1.8 -1.6 1.9 1.4 0 3.8 -0.5 5.5 -1 4.2 -1.5 10.3 1.6 9.9 5 -0.7 6.2 -4.8 10.4 -10.2 10.4 -1.2 0 -2.6 0.5 -3 1.1 -0.5 0.8 0 0.9 1.6 0.5 7 -1.9 9.2 -1.8 10.4 0.3 1.4 2.7 0.5 6.7 -1.7 6.7 -1.3 0 1.7 3.3 1.7 4 0 0.7 1.1 -0.8 2.4 -3.2 3.9 -7.5 5.5 -7.4 5.7 0.6 0.1 2.9 0.4 5.5 0.8 5.9 1.8 1.8 0.6 6.1 -2.3 8.2 -2.2 1.6 -2.8 2.7 -2.5 4.4 0.3 1.3 -3 5.1 -5 5.7 -4.1 1 -5.5 0.5 -11 -4.6 -3.8 -3.5 -10 -6.1 -10 -4.2 0 0.8 -1.5 1.6 -3.6 2 -3.3 0.7 -3.4 0.7 -1.2 1.4 1.3 0.4 4.1 0.7 6.2 0.8 2.4 0.1 4.5 0.8 5.7 2 3.6 3.6 11.5 9.3 13.3 9.6 5.3 1 0.1 4.6 -7 4.7 l -3.4 0.1 3.1 1.4 c 5.4 2.4 5.6 8.8 0.2 10.6 -2.5 0.9 -2.8 1.1 -1.2 1.2 2.8 0.1 2.8 1.6 0 3 -1.2 0.6 -2.7 1.7 -3.4 2.4 -1.5 1.5 -7.4 -0.6 -8 -0.6 -0.7 0 0.8 4.8 1.6 5.1 2 0.8 1.8 4.1 -0.5 7.3 -1.8 2.6 -8.7 5.7 -12.5 5.7 -3 0 -7.9 -2.9 -10.3 -6.1 -2.6 -3.5 -6.8 -6.9 -6.8 -5.5 0 0.5 1.3 1.9 2.9 3 1.8 1.3 7.7 10.7 9 11 2.4 0.6 3.8 2.8 2.8 4.4 -0.3 0.5 -3.4 0.7 -7.4 0.4 -4.9 -0.4 -6.2 -0.3 -4.7 0.4 1.2 0.5 2.1 1.5 2.1 2.2 0 1.8 -7.1 7.3 -9.5 7.3 -2.9 0 -2.7 4.5 0.2 5.7 1.8 0.7 2.8 0.1 7 -4.1 2.6 -2.7 5.1 -5.7 5.5 -6.7 0.9 -2.3 3.9 -1.6 4.3 1 0.3 2.4 -1.9 6.2 -5.9 10.2 -1.8 1.8 -2.9 4 -3.1 6 -0.1 1.7 -0.7 4 -1.3 5 -0.6 1.1 -0.8 1.9 -0.6 1.9 0.2 0 -0.1 1.9 -0.7 4.3 -1.1 4.2 -1.3 4.4 -8.3 7.5 -12.3 5.4 -16.9 10 -15.6 16 0.5 2 0.1 2.9 -1.3 3.6 -1.1 0.6 -2 2 -2.2 3.2 -0.3 1.9 -1 2.2 -7.9 2.8 -4.2 0.4 -7.8 0.5 -8 0.3 -0.2 -0.2 -0.2 -1.1 0.1 -1.9 0.4 -1 1.8 -1.5 4.4 -1.5 4.7 0 5.4 -1 2.6 -3.7 -1.9 -1.8 -2.3 -1.9 -2.8 -0.6 -0.3 0.8 -1.3 1.5 -2.3 1.5 -0.9 0 -2.2 0.8 -2.9 1.9 -1.5 2.4 -3.1 2.5 -3.1 0.2 0 -1.9 -3.1 -5 -5 -5 -0.7 0 -2.2 -0.7 -3.4 -1.6 -2.1 -1.5 -2.2 -1.5 -1.2 0.4 1.5 2.9 1.3 4 -0.9 4 -1.4 0 -1.9 0.6 -1.9 2.5 0 2.5 0 2.5 6 1.9 5.9 -0.6 9.1 0.2 8 2.1 -0.3 0.5 -4.2 1.2 -8.6 1.6 -10.8 0.9 -17.7 3.2 -22.7 7.5 -2.2 2 -5.2 3.8 -6.5 4.1 -4.8 1.1 -10.4 5.2 -17.1 12.4 -3.7 4 -9.2 10.4 -12.1 12.2 -4.3 2.8 -5.8 4.4 -7.8 8.8 -1.4 3 -11.4 13.7 -14.2 19.3 -1.5 3.1 -3.4 6 -4.2 6.3 -3.4 1.3 -18.5 3.3 -29.1 3.8 -19.3 0.9 -38.2 7.1 -43.4 14.2 -0.8 1.1 -2.6 4.7 -4 8.1 -1.4 3.4 -4 9 -5.7 12.4 -4.3 8.3 -9.6 11.7 -26.6 17.1 -7.1 2.2 -16.5 5.4 -21 7 -7.7 2.8 -13.4 3.7 -17.6 2.8 z M 196.7 355.1 c 0.5 0 2.2 0.7 3.9 1.5 1.8 0.9 3.2 1.2 3.8 0.6 0.6 -0.6 -0.9 -1.5 -3.9 -2.5 -6.3 -2.1 -6.5 -2 -10.6 1.6 -2.9 2.6 -3.3 3.4 -2.2 4.1 1 0.6 2.3 -0 4.7 -2.2 1.8 -1.7 3.7 -3.1 4.2 -3.1 z m -16.3 -23.4 c 2.8 -1.5 5.6 -5.2 3.9 -5.2 -0.5 0 -2.1 1 -3.6 2.2 -1.5 1.2 -3.5 2.7 -4.6 3.3 -1.7 1 -1.7 1.1 -0.2 1.1 0.9 0 3 -0.6 4.5 -1.4 z m -49.8 -225 -0 -2.9 -0.7 2.9 c -0.4 1.6 -0.8 3.7 -0.8 4.8 -0.1 1.9 -0.1 1.9 0.8 0 0.5 -1.1 0.8 -3.2 0.8 -4.8 z m 274.3 6 c -1.2 -4 -1.3 -8.3 -0.1 -8.3 2.9 0 5.6 7.2 3.3 8.7 -1.8 1.2 -2.8 1.1 -3.2 -0.3 z" class="style3"/></g><path d="m 612.3 107.1 c -0.5 -0.3 -1.6 -2 -2.4 -3.6 -1.2 -2.3 -1.4 -3.4 -0.6 -4.8 0.8 -1.5 0.5 -2.4 -1.2 -4.7 -2.5 -3.3 -4.7 -9.2 -4 -10.9 0.2 -0.6 -0.3 -1.6 -1.3 -2.2 -1 -0.6 -1.7 -2.1 -1.7 -3.4 0 -1.3 0.4 -2.1 0.8 -1.8 1.1 0.7 2.2 -2.8 1.4 -4.1 -0.3 -0.6 0.2 -2.1 1.1 -3.4 2.6 -3.6 3.1 -5.5 1.9 -7.4 -0.8 -1.3 -0.8 -2.2 0.1 -4 1.1 -2 1 -2.6 -0.3 -4.6 -1.1 -1.6 -1.6 -4.7 -1.7 -10.8 -0.2 -7.3 0 -8.8 1.5 -10.5 1 -1.1 2.5 -1.9 3.4 -1.9 2.2 0 2.9 -1.4 1.7 -3.6 -0.7 -1.3 -0.7 -2.4 0.1 -3.8 0.6 -1.1 1.1 -4.1 1.2 -6.8 0.1 -3.2 0.5 -4.9 1.3 -5.1 1.5 -0.3 3.9 -6.5 4.2 -10.7 0.2 -3.9 1.9 -7.3 3.7 -7.3 0.7 0 1.4 -1.1 1.6 -2.5 0.2 -1.4 0.7 -2.4 1.2 -2.3 0.5 0.1 2 0.4 3.4 0.8 2.4 0.6 2.5 0.5 2.5 -3.1 l 0 -3.8 2.4 2.2 c 1.3 1.2 3.5 2.4 4.8 2.7 1.3 0.3 2.9 1.4 3.4 2.6 1.9 3.9 4 11.2 4 13.4 -0 1.2 0.6 3 1.5 3.9 1.3 1.5 1.4 1.8 0.2 2.6 -0.7 0.5 -2 0.8 -2.8 0.9 -2.1 0 -6.4 9.1 -5.2 11.2 1.5 2.8 -0.1 7 -4.8 12.1 -2.4 2.7 -4.4 5.3 -4.4 5.9 0 0.5 -0.4 0.7 -0.9 0.4 -0.5 -0.3 -0.7 0 -0.4 0.7 0.3 0.7 -0 1.9 -0.7 2.5 -0.8 0.8 -1.1 3.6 -1.1 8.3 0.1 6.5 1.1 9.7 3.1 9.7 0.4 0 1.9 1.1 3.2 2.4 2.2 2.2 2.3 2.7 1.4 5.3 -0.6 1.6 -1 3.6 -1 4.5 0 0.9 -0.5 1.5 -1.1 1.3 -1.2 -0.4 -6.2 4.3 -5.5 5.1 0.9 0.9 0.2 16.9 -0.8 19.2 -0.7 1.6 -1.8 2.3 -3.5 2.3 -2.7 0 -5.4 2.5 -5.4 4.8 0 1.7 -2.9 3.5 -4.1 2.6 z m 14.6 -11.5 c 0.4 -1.5 1 -3.1 1.4 -3.6 0.4 -0.5 0.4 0.5 -0.1 2.2 -1.1 3.9 -2.2 5 -1.3 1.4 z m 7.7 -8.5 c 0 -0.9 0.6 -2.4 1.4 -3.4 1.3 -1.7 1.3 -1.7 1 0.5 -0.2 1.2 -0.4 2.8 -0.4 3.4 -0.1 1.8 -1.9 1.3 -1.9 -0.5 z" class="style2"/><g transform="matrix(0.55611256,0,0,0.55611256,476.18865,-167.23508)" class="style2"><path d="m 359.7 567.8 c -0.7 -1.2 -2.4 -2.2 -4.3 -2.6 -1.5 -0.3 -1.9 -0.8 -1.8 -2.3 0.1 -1.5 0.5 -1.6 5.3 -1.7 l 3.3 -0 0.5 -1.1 c 0.3 -0.7 1 -1.4 1.8 -1.8 0.9 -0.4 1.5 -1.1 2 -2 0.6 -1.2 0.8 -1.3 1.9 -1.3 1 0 1.7 -0.3 3.2 -1.5 2.1 -1.6 2.2 -1.8 1.7 -3.7 -0.4 -1.3 0.1 -2.2 1.5 -3.2 0.8 -0.6 0.9 -0.5 1.8 0.5 0.5 0.6 1.1 1 1.5 1 0.3 -0.1 1.1 -1 1.7 -2.1 l 1.2 -2 3.4 -0.1 3.4 -0.1 2.6 1.7 c 2.5 1.6 2.7 1.7 4.3 1.5 2.1 -0.3 2.2 -0.4 3.1 -2.1 0.4 -0.8 1.3 -2 2.1 -2.7 1.1 -1 1.3 -1.3 0.9 -1.5 -1 -0.7 -2 -0.3 -3.8 1.3 -1.5 1.5 -1.9 1.6 -3.2 1.6 -1.2 0 -1.7 -0.2 -3 -1.3 -1.3 -1.1 -1.7 -1.8 -2.4 -3.7 -0.9 -2.5 -1.7 -3.1 -2.8 -2.1 -0.8 0.7 -3.2 1 -3.8 0.6 -0.3 -0.2 -0.5 -1.4 -0.7 -2.8 l -0.2 -2.4 -1.7 0 c -1.5 0 -1.8 0.1 -2.4 1 -0.6 0.9 -0.8 1 -2.7 1 -1.8 0 -2 -0.1 -2.8 -1 -0.5 -0.6 -1.4 -1.6 -2.1 -2.3 -1 -1.1 -1.2 -1.5 -1.1 -2.3 0.1 -0.6 0.2 -1.9 0.4 -2.9 0.1 -1 0.4 -2 0.6 -2.2 0.3 -0.2 1.4 -0.2 3.6 0.2 l 3.1 0.5 0.7 -0.9 c 1.6 -2.1 1.8 -2.2 3.7 -1.9 l 1.8 0.2 3.5 -3 c 1.9 -1.7 3.6 -3.2 3.7 -3.4 0.4 -0.5 0.3 -5.5 -0.2 -6.2 -0.7 -1.1 -1.8 -2.4 -2.1 -2.4 -0.2 0 -1.1 0.6 -2 1.3 -2.2 1.6 -2.7 1.6 -3.4 -0 -0.8 -2 -0.7 -2.4 0.9 -3.2 1.3 -0.7 4.4 -3.9 4.4 -4.6 0 -0.2 -0.4 -1.2 -1 -2.2 -0.5 -1.1 -1 -2.1 -1 -2.4 0 -0.5 2.3 -2.8 2.8 -2.8 0.2 0 1.3 0.9 2.4 2.1 1.8 1.8 2 2.2 1.9 3.1 -0.1 0.9 -0.1 1 0.8 1 0.6 0 1.1 -0.2 1.3 -0.7 0.6 -1 1.6 -0.8 2.6 0.5 1.1 1.3 1.3 1.4 2.4 0.5 1.2 -0.9 3.2 -0.9 4.2 0.1 0.4 0.4 0.8 1 0.8 1.3 0 0.3 0.2 0.5 0.4 0.5 0.2 0 0.3 -0.2 0.1 -0.6 -0.6 -1.4 -0.5 -1.8 0.1 -2.5 0.6 -0.7 0.7 -1 0.5 -2.4 l -0.2 -1.6 1.6 -1.3 c 0.9 -0.7 1.7 -1.4 1.7 -1.5 0 -0.2 -0.5 -0.7 -1.2 -1.3 -1.2 -1 -1.2 -1 -0.8 -2.4 0.4 -1.5 0.4 -1.5 2.5 -1.4 l 1.4 0.1 -0.2 -1 c -0.2 -0.8 -0 -1.3 0.5 -2 1.1 -1.5 0.8 -1.8 -0.4 -0.5 -1 1 -1.3 1.2 -2 1 -1.2 -0.3 -1.7 -1 -1.7 -2.4 0 -0.8 -0.1 -1.1 -0.5 -0.9 -0.3 0.1 -0.8 -0.1 -1.2 -0.4 -0.6 -0.5 -0.7 -0.7 -0.3 -1.9 0.4 -1.5 0.1 -3.2 -1.1 -5.3 -0.4 -0.8 -0.7 -1.6 -0.6 -1.8 0.1 -0.2 1 -1.4 1.9 -2.7 0.9 -1.3 1.9 -2.8 2.2 -3.3 0.4 -0.7 0.8 -1.1 1.5 -1.3 0.5 -0.1 0.9 -0.3 0.8 -0.5 -0.3 -0.5 -1.3 -0.3 -1.9 0.4 -0.5 0.6 -0.8 0.6 -2.1 0.5 -1.3 -0.2 -1.7 -0.1 -2.9 0.7 -0.7 0.5 -2 1 -2.7 1 -1.3 0.2 -1.5 0.1 -2.5 -1.2 -1.2 -1.5 -1.6 -1.7 -1.6 -0.6 0 1.1 -1 2.5 -1.7 2.5 -0.4 0 -1.1 -0.8 -2.1 -2.3 -0.8 -1.3 -1.6 -2.3 -1.6 -2.3 -0.1 0 -0.4 0.2 -0.7 0.4 -0.5 0.3 -0.9 0.2 -2.4 -1 -2.5 -1.9 -2.7 -2.7 -0.9 -3.1 0.8 -0.2 1 -0.4 1 -1.3 0 -1.4 2.8 -5.6 5.5 -8.4 l 1.8 -1.9 -1 -2.1 c -1.2 -2.5 -1.2 -2.5 -0.4 -5.4 0.5 -1.7 0.9 -2.3 1.4 -2.6 0.7 -0.3 0.7 -0.4 0.3 -1.2 -0.2 -0.5 -0.5 -1.7 -0.6 -2.7 l -0.2 -1.9 -1.2 0.7 c -0.7 0.4 -1.9 1.1 -2.9 1.6 l -1.7 0.9 0.2 2.3 0.2 2.3 -1.3 1.2 c -1.1 1 -1.5 1.7 -2.3 4.5 -1.1 3.7 -1.6 4.4 -3.3 5 -1.7 0.6 -2.6 0.4 -3.1 -0.4 -0.6 -0.9 -0.3 -2 0.6 -2.8 0.7 -0.6 1.5 -2.3 2.3 -4.5 0.3 -1 1.1 -2.3 1.7 -3 1 -1.1 1 -1.2 0.5 -1.7 -0.5 -0.5 -0.5 -0.6 0 -1.5 0.5 -0.9 0.5 -1 -0.1 -1.2 -1.1 -0.3 -0.8 -1 0.9 -2.1 1.5 -1 1.6 -1.1 1.8 -2.7 0.1 -0.9 0.2 -2.1 0.2 -2.7 0 -0.7 0.3 -1.3 1.3 -2.2 0.7 -0.7 1.5 -1.8 1.8 -2.4 0.3 -0.7 0.9 -1.5 1.4 -1.7 0.5 -0.3 1.2 -0.8 1.7 -1.2 0.7 -0.6 0.7 -0.6 -0.6 0.1 -0.8 0.4 -2.1 1.6 -2.9 2.5 -2.4 2.9 -3.2 3.5 -4.8 4.1 -3.3 1.1 -7.3 0.3 -7.3 -1.6 0 -1 0.2 -1.1 2.6 -1.4 1.3 -0.2 2.1 -0.5 2.5 -0.9 0.7 -1 0.6 -1.7 -0.4 -1.9 -1.8 -0.4 -2 -0.5 -2.4 -1.1 -0.5 -0.9 -0.1 -1.6 1 -1.8 0.8 -0.2 0.9 -0.3 0.9 -1.2 0 -1.6 0.7 -2 2.5 -1.5 0.8 0.2 1.9 0.5 2.3 0.6 l 0.8 0.2 -0.7 -1 c -0.9 -1.3 -0.9 -3 0 -3.9 0.9 -0.8 2.7 -0.9 3.6 -0.2 0.8 0.6 1.8 0.6 2.6 0 0.6 -0.4 0.5 -0.5 -0.9 -1.5 -1.2 -0.9 -1.5 -1.2 -1.4 -1.9 0.1 -0.7 0.3 -0.8 1.8 -0.9 1.5 -0.1 1.7 -0.2 1.9 -0.9 0.5 -1.8 -0.1 -4.6 -1.3 -7.1 -1.4 -2.8 -1.9 -5.9 -1.1 -6.6 0.6 -0.5 1.4 -0.2 2.1 0.9 l 0.6 0.9 0.2 -1.5 c 0.1 -1.2 0.3 -1.5 0.9 -1.6 0.4 -0.1 1.1 0.2 1.7 0.7 1.7 1.5 2.1 1 0.6 -0.7 -1.1 -1.2 -1.1 -1.6 -0.7 -2.9 0.3 -0.8 1.4 -1.1 1.8 -0.5 0.5 0.7 0.8 0.2 0.8 -1.1 0 -1.9 0.6 -2.1 2.5 -0.8 2 1.3 2.5 1 0.7 -0.6 -1.1 -1 -1.3 -1.3 -1.2 -2 0.1 -0.5 0.6 -1 1.3 -1.4 1 -0.5 1.5 -1.2 2 -3.1 0.1 -0.4 0.4 -1.1 0.7 -1.4 0.5 -0.6 1.9 -0.8 2.2 -0.2 0.1 0.2 0.5 0.3 0.8 0.3 0.7 0 2.6 2.4 2.8 3.7 0.2 1.1 0.3 1.1 1.3 0.1 0.7 -0.8 0.9 -0.8 4.4 -0.8 4.2 0 9.2 0.5 11 1.1 1.6 0.6 1.8 1.8 0.5 4.1 -1.2 2.2 -2.9 3.6 -9.2 7.9 -2.9 2 -5.2 3.7 -5.2 3.8 -0 0.1 0.5 0.3 1.2 0.5 1.7 0.4 1.7 1.2 0.1 2.8 -1.3 1.3 -2 1.5 -3.5 1 -0.7 -0.3 -1 -0.2 -1.6 0.4 -1.4 1.3 -1 1.6 2.2 1.6 2.8 0 3.1 -0.1 5.1 -1.2 l 2.2 -1.2 2.2 1 c 1.3 0.6 2.7 1 3.5 1 1.9 0 7.9 1.2 10.4 2.1 2.9 1.1 4.3 2.3 4.3 3.9 0 0.8 -0.2 1.4 -0.7 1.8 -0.4 0.3 -1.1 0.9 -1.6 1.4 -0.7 0.5 -1 1.3 -1.4 2.8 -0.8 3.5 -3.5 7.2 -9.9 13.5 l -3.6 3.6 0.9 1.1 c 1.1 1.2 1.6 3.6 1 4.9 -0.5 1 -1.5 1 -3.5 0.1 l -1.5 -0.7 -0.8 1 c -0.7 0.9 -0.9 1 -3.2 1 -2.6 0 -3 0.2 -2.7 1 0.2 0.6 2.2 0.7 4.3 0.2 0.7 -0.2 2.7 -0.4 4.4 -0.5 3 -0.2 3.1 -0.2 4.2 0.7 1.2 1.1 2 2.4 3 5.5 0.9 3 1.7 4.2 3.5 5.4 1.7 1.2 1.7 1.5 0.9 6 -0.7 4.1 -0.8 12.7 -0 15.1 0.7 2.2 1.2 2.8 3.3 3.2 3 0.7 4.5 2 6.5 5.6 0.8 1.5 1.8 2.7 3.1 3.7 1.8 1.5 2.9 2.9 2.9 3.7 0 0.2 -0.6 0.9 -1.3 1.5 -0.7 0.6 -1.3 1.4 -1.3 1.8 0 0.3 0.8 2.1 1.8 3.9 2.3 4 2.5 5.4 0.9 6.2 -0.6 0.3 -1.1 0.6 -1.1 0.7 -0 0.1 0.4 1 0.8 1.9 1.6 3.1 2.4 5.7 2.4 7.6 0 1.5 -0.1 1.9 -0.9 2.6 -0.5 0.4 -1 0.8 -1.1 0.8 -0.5 0 -2.6 2 -2.6 2.5 0 0.5 1.9 1.9 2.2 1.7 0.1 -0.1 0.4 -0.7 0.7 -1.3 0.8 -1.6 2.4 -2.3 5 -2.1 4.3 0.3 9.1 2.6 12.2 5.7 2.6 2.7 3.2 5.4 2.1 10.4 -0.4 1.8 -1.9 4.3 -4.4 7.3 -1.7 2 -2.1 2.4 -3.2 2.5 -1.1 0.1 -1.2 0.2 -1.1 1.1 0 0.9 -0.1 1.1 -1.3 1.8 -0.7 0.4 -1.6 0.7 -2 0.8 -0.5 0 -0.7 0.2 -0.7 0.6 0 0.3 -0.4 1.3 -0.9 2.3 -0.7 1.4 -1.1 1.7 -2 1.9 -0.8 0.2 -1 0.3 -0.9 0.7 0.1 0.3 0.4 1.1 0.6 1.8 0.2 0.7 0.4 1.3 0.4 1.4 0 0.1 1.6 -0.2 3.6 -0.5 2.6 -0.4 3.6 -0.4 3.8 -0.2 0.4 0.4 -0.4 6.1 -1.1 7.2 -0.2 0.4 -0.9 0.6 -2.6 0.8 -2.1 0.2 -2.4 0.3 -3.3 1.4 -1.4 1.6 -1.8 1.8 -2.5 1.2 -0.5 -0.5 -0.9 -0.4 -4.8 1.3 -2.3 1 -4.5 1.8 -4.9 1.8 -0.4 0 -1.7 -0.7 -3 -1.5 l -2.2 -1.5 -4.1 0.3 c -2.2 0.2 -4.4 0.3 -4.9 0.3 -0.5 0 -2.1 -0.9 -4.2 -2.4 -1.9 -1.3 -3.5 -2.4 -3.6 -2.4 -0.1 0 -0.1 0.5 0.1 1 0.5 1.8 0.1 1.9 -4.7 1.7 l -4.3 -0.2 -0.3 1.3 c -0.3 1 -0.5 1.3 -1.2 1.4 -1 0.1 -5.3 -1 -13.7 -3.5 -3 -0.9 -5.5 -1.6 -5.6 -1.6 -0 0 -1 1.8 -2.1 4 -2.8 5.3 -2.8 5.4 -4 5.4 -0.5 0 -3.6 -1.3 -7 -2.9 -3.3 -1.6 -6.3 -2.9 -6.6 -2.9 -0.3 0 -0.8 0.5 -1.1 1.2 -0.5 1.1 -0.6 1.2 -1.6 1 -2.3 -0.5 -2.6 -0.4 -3.1 0.6 -0.7 1.5 -2 2.9 -3 3.3 -0.9 0.4 -1 0.3 -1.6 -0.7 z m 49.5 -67.7 c 0 -0.3 -0.8 -1.1 -1.6 -1.5 -0.3 -0.2 -0.1 0.2 0.3 0.8 0.7 1 1.3 1.3 1.3 0.8 z M 367.8 474.1 c -1.4 -1 -1.5 -1 -2.2 -0.3 -0.5 0.4 -0.8 0.4 -2.1 0.1 -1.7 -0.4 -2.1 -0.9 -1.6 -2.3 0.3 -0.8 0.2 -1 -0.9 -2 -1.1 -1 -1.3 -1.4 -1.5 -2.9 -0.2 -1.7 -0.3 -1.8 -1 -1.8 -1.5 0 -2 0.5 -2.2 2.3 -0.1 0.9 -0.4 1.8 -0.7 2 -0.2 0.2 -1.3 0.3 -2.5 0.3 l -2.1 -0.1 -2.9 -3.6 c -3.2 -4 -4 -5.5 -3.4 -6.1 0.2 -0.2 1.4 -0.7 2.5 -1 3.7 -1 3.6 -1 3.1 -2.2 -0.7 -1.6 -0.3 -2 2 -1.8 l 1.9 0.1 1.3 -2.4 c 1.9 -3.3 2.1 -3.5 3.4 -2.9 1.7 0.9 2.5 0.7 3.5 -0.8 0.9 -1.4 1.1 -1.5 2.7 -0.9 0.9 0.3 1.2 0.3 2.1 -0.2 1.5 -0.8 3.2 -0.5 5.7 1.1 l 2.1 1.3 -0.1 2.1 c -0.2 3.1 0.1 3.9 1.4 4.7 0.6 0.3 1.1 0.8 1.1 1 0 0.2 0.1 0.7 0.2 1.1 0.2 0.6 -0.1 1 -1.5 2.3 -1 0.9 -1.6 1.7 -1.4 1.8 0.2 0.1 1 0.1 1.9 -0.1 2.5 -0.5 2.5 -0.4 2.3 3.6 -0.1 2 -0.3 3.7 -0.4 4 -0.2 0.6 -1.2 0.8 -3.2 0.8 -2 0 -2.1 0.1 -3.2 2 -1.2 2.1 -2.5 2.4 -4.5 1.1 z" class="style2"/></g></g></svg>